<svg width="1920" height="1000" viewBox="0 0 1920 1000" fill="none" xmlns="http://www.w3.org/2000/svg">
<path fill-rule="evenodd" clip-rule="evenodd" d="M1920 0H0V1000H1920V0ZM542.644 414.6H468.243V435.6H494.043V525H515.793V435.6H542.644V414.6ZM654.834 525V414.6H633.084V459.15H583.734V414.6H561.984V525H583.734V480.15H633.084V525H654.834ZM756.923 414.6H681.623V525H759.023V504H703.373V480.15H750.773V459.15H703.373V435.6H756.923V414.6ZM824.604 448.35C821.705 455.15 820.255 462.35 820.255 469.95C820.255 477.75 821.705 485.05 824.604 491.85C827.505 498.65 831.505 504.65 836.604 509.85C841.805 514.95 847.805 518.95 854.604 521.85C861.404 524.75 868.705 526.2 876.505 526.2C884.205 526.2 891.455 524.75 898.255 521.85C905.055 518.95 911.055 514.95 916.255 509.85C921.555 504.65 925.654 498.65 928.555 491.85C931.555 485.05 933.055 477.75 933.055 469.95C933.055 462.35 931.555 455.15 928.555 448.35C925.654 441.55 921.555 435.55 916.255 430.35C911.055 425.05 905.055 420.9 898.255 417.9C891.455 414.9 884.205 413.4 876.505 413.4C868.705 413.4 861.404 414.9 854.604 417.9C847.805 420.9 841.805 425.05 836.604 430.35C831.505 435.55 827.505 441.55 824.604 448.35ZM845.305 483.75C843.604 479.45 842.755 474.85 842.755 469.95C842.755 464.95 843.604 460.3 845.305 456C847.005 451.7 849.404 447.95 852.505 444.75C855.604 441.45 859.205 438.9 863.305 437.1C867.404 435.3 871.854 434.4 876.654 434.4C881.455 434.4 885.904 435.3 890.005 437.1C894.104 438.9 897.654 441.45 900.654 444.75C903.755 447.95 906.154 451.7 907.854 456C909.654 460.3 910.555 464.95 910.555 469.95C910.555 474.85 909.705 479.45 908.005 483.75C906.305 487.95 903.955 491.7 900.955 495C897.955 498.2 894.404 500.7 890.305 502.5C886.305 504.3 881.955 505.2 877.255 505.2C872.354 505.2 867.805 504.3 863.604 502.5C859.505 500.7 855.854 498.2 852.654 495C849.555 491.7 847.104 487.95 845.305 483.75ZM1029.14 519.9C1032.44 518.2 1034.69 516.85 1035.89 515.85L1026.89 496.35C1024.69 498.45 1021.49 500.45 1017.29 502.35C1013.09 504.25 1008.04 505.2 1002.14 505.2C997.039 505.2 992.439 504.35 988.339 502.65C984.339 500.95 980.889 498.55 977.989 495.45C975.089 492.25 972.839 488.45 971.239 484.05C969.739 479.65 968.989 474.8 968.989 469.5C968.989 464.5 969.839 459.9 971.539 455.7C973.239 451.4 975.539 447.65 978.439 444.45C981.439 441.25 984.839 438.8 988.639 437.1C992.539 435.3 996.589 434.4 1000.79 434.4C1006.19 434.4 1010.94 435.45 1015.04 437.55C1019.24 439.55 1022.59 441.5 1025.09 443.4L1033.64 422.85C1030.04 420.55 1025.39 418.4 1019.69 416.4C1013.99 414.4 1007.44 413.4 1000.04 413.4C992.039 413.4 984.739 414.8 978.139 417.6C971.539 420.4 965.839 424.35 961.039 429.45C956.339 434.55 952.689 440.6 950.089 447.6C947.589 454.6 946.339 462.3 946.339 470.7C946.339 478.2 947.589 485.25 950.089 491.85C952.589 498.45 956.189 504.3 960.889 509.4C965.689 514.5 971.489 518.55 978.289 521.55C985.189 524.45 992.989 526 1001.69 526.2C1007.39 526.3 1012.59 525.7 1017.29 524.4C1021.99 523.1 1025.94 521.6 1029.14 519.9ZM1131.33 414.6H1056.03V525H1133.43V504H1077.78V480.15H1125.18V459.15H1077.78V435.6H1131.33V414.6ZM1191.63 410.25L1141.83 525H1163.28L1172.28 503.4H1208.92L1217.43 525H1242.63L1192.83 410.25H1191.63ZM1201.71 485.1L1191.1 458.185L1179.9 485.1H1201.71ZM1278.69 459.739L1355.92 529.5H1356.52V414.6H1334.62L1335.06 481.122L1257.97 410.25H1257.07V525H1279.12L1278.69 459.739ZM1429.36 435.6C1433.76 437.1 1438.06 439 1442.26 441.3L1450.51 424.65C1446.11 421.75 1441.11 419.25 1435.51 417.15C1430.01 415.05 1422.81 414 1413.91 414C1407.11 414.3 1401.11 415.85 1395.91 418.65C1390.71 421.35 1386.66 425.05 1383.76 429.75C1380.96 434.45 1379.56 440 1379.56 446.4C1379.56 451.7 1380.51 456.2 1382.41 459.9C1384.41 463.5 1386.96 466.55 1390.06 469.05C1393.26 471.45 1396.66 473.5 1400.26 475.2C1403.86 476.9 1407.36 478.4 1410.76 479.7C1413.66 480.8 1416.31 482.1 1418.71 483.6C1421.21 485.1 1423.16 486.75 1424.56 488.55C1426.06 490.35 1426.81 492.35 1426.81 494.55C1426.81 497.75 1425.91 500.25 1424.11 502.05C1422.41 503.85 1420.21 505.15 1417.51 505.95C1414.91 506.65 1412.31 507 1409.71 507C1407.11 507 1404.26 506.6 1401.16 505.8C1398.06 505 1394.96 503.9 1391.86 502.5C1388.86 501 1386.06 499.3 1383.46 497.4L1373.86 514.35C1377.76 517.05 1381.81 519.3 1386.01 521.1C1390.21 522.8 1394.46 524.1 1398.76 525C1403.16 525.8 1407.46 526.2 1411.66 526.2C1419.86 526.2 1426.76 524.75 1432.36 521.85C1437.96 518.85 1442.21 514.95 1445.11 510.15C1448.01 505.35 1449.46 500.15 1449.46 494.55C1449.46 489.25 1448.71 484.8 1447.21 481.2C1445.71 477.5 1443.71 474.45 1441.21 472.05C1438.71 469.55 1435.86 467.5 1432.66 465.9C1429.56 464.2 1426.41 462.75 1423.21 461.55C1419.71 460.25 1416.31 458.8 1413.01 457.2C1409.81 455.6 1407.16 453.8 1405.06 451.8C1403.06 449.7 1402.06 447.35 1402.06 444.75C1402.06 440.95 1403.41 438.1 1406.11 436.2C1408.81 434.3 1412.51 433.35 1417.21 433.35C1421.01 433.35 1425.06 434.1 1429.36 435.6Z" fill="#0F396A"/>
</svg>
