<svg width="1920" height="1000" viewBox="0 0 1920 1000" fill="none" xmlns="http://www.w3.org/2000/svg">
<path fill-rule="evenodd" clip-rule="evenodd" d="M1920 0H0V1000H1920V0ZM271.808 453V588H315.058V453H355.808V410H231.058V453H271.808ZM467.12 512.25V588H510.62V410H467.12V469.5H411.87V410H368.62V588H411.87V512.25H467.12ZM535.466 410V588H654.966V545H578.966V511H646.966V467.75H578.966V452.5H656.716V410H535.466ZM896.188 498C896.188 446.75 854.188 405.25 803.438 405.25C752.438 405.25 710.938 446.75 710.938 498C710.938 548.75 752.438 590.25 803.438 590.25C854.188 590.25 896.188 548.75 896.188 498ZM852.438 498C852.438 525 830.688 547.25 803.438 547.25C776.188 547.25 754.188 525 754.188 498C754.188 470.75 776.188 448 803.438 448C830.688 448 852.438 470.75 852.438 498ZM1039.09 522.5C1025.09 541 1011.34 547.5 995.837 547.5C968.087 547.5 946.087 525.5 946.087 497.75C946.087 470.25 968.087 448 995.837 448C1011.34 448 1025.59 455.5 1039.59 474.25L1074.34 448.75C1052.09 419 1025.34 405.25 995.837 405.25C944.837 405.25 903.087 446.75 903.087 497.75C903.087 548.75 944.837 590.5 995.837 590.5C1024.84 590.5 1051.09 577.5 1073.34 547.75L1039.09 522.5ZM1081.4 410V588H1200.9V545H1124.9V511H1192.9V467.75H1124.9V452.5H1202.65V410H1081.4ZM1317.51 547.5L1332.76 588H1379.51L1310.76 410H1274.26L1205.76 588H1251.76L1267.51 547.5H1317.51ZM1292.51 479L1300.76 505H1284.01L1292.51 479ZM1432.05 492.75L1496.05 588H1535.55V410H1492.05V504.75L1428.3 410H1388.55V588H1432.05V492.75ZM1600.7 587.5C1606.2 588.75 1612.7 589.5 1618.7 589.5C1629.95 589.5 1640.2 588 1650.2 582.75C1659.7 578 1668.2 572 1673.95 563.75C1680.45 554.75 1683.45 544 1683.45 532.5C1683.45 513 1673.95 497.25 1655.95 487.25H1656.2C1647.5 482.211 1634.6 479.27 1625 477.082C1624.12 476.882 1623.27 476.688 1622.45 476.5C1621.61 476.259 1620.77 476.134 1619.95 476.013C1619.07 475.884 1618.23 475.759 1617.45 475.5C1602.95 472.5 1593.95 469.25 1593.95 462.5C1593.95 459.25 1596.45 455.75 1601.2 453.75C1604.2 452.25 1607.95 451.25 1612.7 451.25C1622.2 451.25 1631.7 453.5 1650.2 468.75L1677.7 435.75C1657.2 418.75 1642.45 412.25 1626.45 409.5C1621.45 408.75 1617.45 408.5 1613.2 408.5C1602.95 408.5 1592.2 410.75 1582.7 415.25L1582.95 415C1573.7 419.25 1565.7 425.5 1559.95 433.5C1554.2 442 1550.7 452 1550.7 462.5C1550.7 481.5 1559.45 496.75 1576.45 506.75C1586.45 512.75 1610.95 518 1615.95 519C1627.2 521.25 1640.2 525.5 1640.2 532.5C1640.2 539.25 1634.95 542.5 1631.95 544C1628.45 545.75 1623.95 546.75 1618.95 546.75C1615.95 546.75 1612.7 546.25 1609.45 545.5C1598.45 543.5 1589.2 538.25 1573.45 524.5L1544.95 557.25C1566.2 575.5 1582.7 583.75 1600.7 587.5Z" fill="#0F396A"/>
</svg>
