<svg width="120" height="137" viewBox="0 0 120 137" fill="none" xmlns="http://www.w3.org/2000/svg">
<path d="M98.247 49.3571C84.0247 33.0763 91.4633 16.9981 96.9605 10.9941C95.2061 29.24 108.035 42.4565 110.411 46.0823C117.078 56.2578 125.499 79.6499 114.855 101.872C100.739 131.346 75.1669 136.415 61.5215 136.493C97.8962 134.855 111.648 103.978 112.633 89.2406C113.087 82.4569 112.469 65.638 98.247 49.3571Z" fill="white"/>
<path d="M21.7539 49.3571C35.9763 33.0763 28.5376 16.9981 23.0405 10.9941C24.7949 29.24 11.9656 42.4565 9.59005 46.0823C2.92331 56.2578 -5.49783 79.6499 5.14556 101.872C19.2621 131.346 44.8341 136.415 58.4795 136.493C22.1048 134.855 8.3528 103.978 7.36781 89.2406C6.9144 82.4569 7.53156 65.638 21.7539 49.3571Z" fill="white"/>
<path d="M99.3378 3.56849C97.561 5.6141 92.3436 8.48082 88.6944 17.3698C85.132 26.0475 88.1164 34.9109 90.1827 38.5194C81.2614 25.1656 84.7178 13.3932 85.7704 10.4691C86.8231 7.54514 89.864 1.69712 92.3202 0.410555C94.2851 -0.618697 95.2442 0.527515 95.4781 1.22928C96.0629 0.605489 97.6536 -0.43156 99.3378 0.410555C101.022 1.25267 100.04 2.86672 99.3378 3.56849Z" fill="white"/>
<path d="M20.6622 3.56849C22.439 5.6141 27.6564 8.48082 31.3056 17.3698C34.868 26.0475 31.8836 34.9109 29.8173 38.5194C38.7386 25.1656 35.2822 13.3932 34.2296 10.4691C33.1769 7.54514 30.136 1.69712 27.6798 0.410555C25.7149 -0.618697 24.7558 0.527515 24.5219 1.22928C23.9371 0.605489 22.3464 -0.43156 20.6622 0.410555C18.9779 1.25267 19.9604 2.86672 20.6622 3.56849Z" fill="white"/>
<path d="M82.2702 11.9666C81.7802 14.6314 78.745 19.7526 80.1221 29.2623C81.4664 38.546 88.5426 44.661 92.1565 46.7177C77.685 39.7545 74.6759 27.8598 74.0957 24.8068C73.5155 21.7537 73.1608 15.1718 74.6217 12.8152C75.7904 10.9299 77.1991 11.4293 77.7573 11.9146C77.9437 11.0801 78.7862 9.3784 80.6646 9.24725C82.5431 9.1161 82.5177 11.0055 82.2702 11.9666Z" fill="white"/>
<path d="M37.7308 11.9666C38.2207 14.6314 41.256 19.7526 39.8789 29.2623C38.5346 38.546 31.4584 44.661 27.8444 46.7177C42.316 39.7545 45.3251 27.8598 45.9053 24.8068C46.4855 21.7537 46.8401 15.1718 45.3792 12.8152C44.2105 10.9299 42.8019 11.4293 42.2437 11.9146C42.0572 11.0801 41.2148 9.3784 39.3363 9.24725C37.4579 9.1161 37.4833 11.0055 37.7308 11.9666Z" fill="white"/>
<path d="M105.849 105.147C116.236 81.4745 102.536 57.9343 94.3874 49.1233C123.206 108.446 84.4847 131.697 61.5215 135.908C71.9699 135.518 95.4634 128.82 105.849 105.147Z" fill="white"/>
<path d="M14.1515 105.147C3.76542 81.4745 17.4654 57.9343 25.6136 49.1233C-3.20542 108.446 35.5163 131.697 58.4795 135.908C48.031 135.518 24.5376 128.82 14.1515 105.147Z" fill="white"/>
<path d="M72.368 36.2003C72.2867 36.0504 72.2189 35.9131 72.1641 35.7898C72.2319 35.9277 72.2998 36.0646 72.368 36.2003C73.4426 38.1838 76.8709 42.4017 83.7431 46.3162C92.983 51.5794 95.4831 63.0084 96.2579 66.5504C97.024 70.0524 100.452 76.9337 101.753 77.8043C102.087 77.9037 102.19 77.8955 101.989 77.8955C101.921 77.8955 101.842 77.8641 101.753 77.8043C100.336 77.3835 94.7671 75.0359 90.5268 61.9889C87.5163 52.7256 79.1179 49.6525 72.368 36.2003Z" fill="white"/>
<path d="M47.632 36.2003C47.7133 36.0504 47.7811 35.9131 47.8359 35.7898C47.7681 35.9277 47.7002 36.0646 47.632 36.2003C46.5574 38.1838 43.1291 42.4017 36.2569 46.3162C27.017 51.5794 24.5169 63.0084 23.7421 66.5504C22.976 70.0524 19.5475 76.9337 18.2474 77.8043C17.9128 77.9037 17.8099 77.8955 18.011 77.8955C18.0787 77.8955 18.158 77.8641 18.2474 77.8043C19.6639 77.3835 25.2329 75.0359 29.4732 61.9889C32.4837 52.7256 40.8821 49.6525 47.632 36.2003Z" fill="white"/>
<path d="M43.6323 75.2007H51.754V77.4931H48.823V87.2523H46.4487V77.4931H43.6323V75.2007Z" fill="white"/>
<path d="M64.1812 75.2007V87.2523H61.8069V82.3563H56.4197V87.2523H54.0454V75.2007H56.4197V80.0639H61.8069V75.2007H64.1812Z" fill="white"/>
<path d="M67.2857 75.2007H75.5057V77.4931H69.66V80.0639H74.8343V82.3563H69.66V84.9599H75.7349V87.2523H67.2857V75.2007Z" fill="white"/>
<path d="M24.9971 99.9565C24.9971 99.1269 25.1554 98.3409 25.4719 97.5986C25.7885 96.8563 26.2252 96.2013 26.7819 95.6337C27.3495 95.0551 28.0045 94.6021 28.7468 94.2746C29.4891 93.9471 30.286 93.7833 31.1375 93.7833C31.978 93.7833 32.7695 93.9471 33.5118 94.2746C34.2541 94.6021 34.9091 95.0551 35.4767 95.6337C36.0553 96.2013 36.5029 96.8563 36.8194 97.5986C37.1469 98.3409 37.3107 99.1269 37.3107 99.9565C37.3107 100.808 37.1469 101.605 36.8194 102.347C36.5029 103.089 36.0553 103.744 35.4767 104.312C34.9091 104.869 34.2541 105.306 33.5118 105.622C32.7695 105.939 31.978 106.097 31.1375 106.097C30.286 106.097 29.4891 105.939 28.7468 105.622C28.0045 105.306 27.3495 104.869 26.7819 104.312C26.2252 103.744 25.7885 103.089 25.4719 102.347C25.1554 101.605 24.9971 100.808 24.9971 99.9565ZM27.4532 99.9565C27.4532 100.491 27.546 100.994 27.7316 101.463C27.9281 101.921 28.1955 102.331 28.534 102.691C28.8833 103.04 29.2817 103.313 29.7293 103.51C30.1878 103.706 30.6845 103.805 31.2194 103.805C31.7324 103.805 32.2073 103.706 32.6439 103.51C33.0915 103.313 33.479 103.04 33.8065 102.691C34.134 102.331 34.3905 101.921 34.5761 101.463C34.7617 100.994 34.8545 100.491 34.8545 99.9565C34.8545 99.4107 34.7562 98.9031 34.5598 98.4337C34.3742 97.9643 34.1122 97.5549 33.7738 97.2056C33.4463 96.8454 33.0588 96.567 32.6112 96.3705C32.1636 96.174 31.6778 96.0758 31.1539 96.0758C30.6299 96.0758 30.1441 96.174 29.6965 96.3705C29.249 96.567 28.856 96.8454 28.5176 97.2056C28.1792 97.5549 27.9172 97.9643 27.7316 98.4337C27.546 98.9031 27.4532 99.4107 27.4532 99.9565Z" fill="white"/>
<path d="M48.7165 104.967C48.5855 105.076 48.3399 105.224 47.9796 105.409C47.6303 105.595 47.1991 105.759 46.6861 105.9C46.173 106.042 45.6053 106.108 44.9831 106.097C44.0334 106.075 43.1819 105.906 42.4287 105.589C41.6864 105.262 41.0532 104.82 40.5293 104.263C40.0162 103.706 39.6232 103.068 39.3503 102.347C39.0774 101.627 38.9409 100.857 38.9409 100.038C38.9409 99.1214 39.0774 98.2809 39.3503 97.5167C39.6341 96.7526 40.0326 96.0921 40.5456 95.5354C41.0696 94.9787 41.6919 94.5475 42.4123 94.2418C43.1328 93.9362 43.9297 93.7833 44.803 93.7833C45.6108 93.7833 46.3258 93.8925 46.9481 94.1108C47.5703 94.3292 48.0779 94.5639 48.4709 94.8149L47.5375 97.0582C47.2646 96.8508 46.8989 96.638 46.4404 96.4196C45.9929 96.1904 45.4743 96.0758 44.8849 96.0758C44.4264 96.0758 43.9843 96.174 43.5585 96.3705C43.1437 96.5561 42.7726 96.8235 42.4451 97.1729C42.1285 97.5222 41.8774 97.9315 41.6919 98.4009C41.5063 98.8594 41.4135 99.3616 41.4135 99.9074C41.4135 100.486 41.4954 101.015 41.6591 101.496C41.8338 101.976 42.0794 102.391 42.396 102.74C42.7125 103.079 43.0891 103.341 43.5258 103.526C43.9734 103.712 44.4755 103.805 45.0322 103.805C45.6763 103.805 46.2276 103.701 46.6861 103.493C47.1445 103.286 47.4939 103.068 47.734 102.838L48.7165 104.967Z" fill="white"/>
<path d="M51.0951 93.9143H59.3151V96.2068H53.4694V98.7776H58.6438V101.07H53.4694V103.674H59.5444V105.966H51.0951V93.9143Z" fill="white"/>
<path d="M60.6417 105.966L66.078 93.4395H66.209L71.6453 105.966H68.8944L65.423 97.1565L67.1424 95.9775L62.9832 105.966H60.6417ZM64.3587 101.61H67.9775L68.8126 103.608H63.6219L64.3587 101.61Z" fill="white"/>
<path d="M84.1929 106.457L75.056 98.2045L75.7601 98.5974L75.8092 105.966H73.4021V93.4395H73.5004L82.4408 101.659L81.9169 101.43L81.8677 93.9143H84.2584V106.457H84.1929Z" fill="white"/>
<path d="M93.7972 96.829C93.3387 96.5779 92.8693 96.3705 92.389 96.2068C91.9196 96.043 91.4774 95.9612 91.0626 95.9612C90.5496 95.9612 90.1457 96.0649 89.8509 96.2723C89.5562 96.4797 89.4088 96.7908 89.4088 97.2056C89.4088 97.4894 89.518 97.746 89.7363 97.9752C89.9655 98.1935 90.2548 98.39 90.6041 98.5647C90.9644 98.7394 91.3355 98.8976 91.7176 99.0396C92.0669 99.1705 92.4108 99.3288 92.7492 99.5144C93.0985 99.6891 93.4096 99.9129 93.6825 100.186C93.9554 100.448 94.1738 100.781 94.3375 101.185C94.5013 101.578 94.5831 102.063 94.5831 102.642C94.5831 103.253 94.4248 103.821 94.1083 104.345C93.7917 104.869 93.3278 105.295 92.7164 105.622C92.1051 105.939 91.3519 106.097 90.4568 106.097C89.9983 106.097 89.5289 106.053 89.0486 105.966C88.5792 105.868 88.1152 105.726 87.6567 105.54C87.1983 105.344 86.7561 105.098 86.3304 104.803L87.3784 102.953C87.6622 103.16 87.9679 103.346 88.2953 103.51C88.6337 103.663 88.9722 103.783 89.3106 103.87C89.649 103.957 89.9601 104.001 90.2439 104.001C90.5277 104.001 90.8116 103.963 91.0954 103.886C91.3901 103.799 91.6303 103.657 91.8158 103.461C92.0123 103.264 92.1106 102.991 92.1106 102.642C92.1106 102.402 92.0287 102.183 91.865 101.987C91.7121 101.79 91.4993 101.61 91.2264 101.447C90.9644 101.283 90.6751 101.141 90.3585 101.021C89.9874 100.879 89.6053 100.715 89.2123 100.53C88.8193 100.344 88.4482 100.12 88.0988 99.8583C87.7604 99.5854 87.4821 99.2524 87.2638 98.8594C87.0563 98.4555 86.9526 97.9643 86.9526 97.3857C86.9526 96.6871 87.1055 96.0812 87.4111 95.5682C87.7277 95.0551 88.1698 94.6512 88.7374 94.3565C89.3051 94.0508 89.9601 93.8816 90.7024 93.8488C91.6739 93.8488 92.4599 93.9635 93.0603 94.1927C93.6716 94.422 94.2174 94.6949 94.6978 95.0114L93.7972 96.829Z" fill="white"/>
<path d="M103.709 3.20302C95.1137 10.119 100.071 27.5026 103.709 34.6202C97.8432 21.4277 102.134 7.45329 109.574 4.83503C114.212 3.20302 119.531 4.42707 119.531 8.91525C122.396 2.52299 111.484 -3.05324 103.709 3.20302Z" fill="white"/>
<path d="M16.2904 3.20302C24.8853 10.119 19.9279 27.5026 16.2904 34.6202C22.1558 21.4277 17.8654 7.45329 10.4251 4.83503C5.78739 3.20302 0.467646 4.42707 0.467646 8.91525C-2.39681 2.52299 8.51546 -3.05324 16.2904 3.20302Z" fill="white"/>
<path d="M113.821 8.87028C114.886 6.84049 112.876 5.31391 110.176 5.31391C113.011 4.50199 115.764 4.77264 116.791 7.51709C117.451 9.28187 116.116 11.712 113.821 11.4414C111.985 11.2248 110.896 9.63709 110.581 8.87028C110.581 8.87028 112.755 10.9001 113.821 8.87028Z" fill="white"/>
<path d="M6.1793 8.87028C5.11353 6.84049 7.12428 5.31391 9.82422 5.31391C6.98928 4.50199 4.23609 4.77264 3.20937 7.51709C2.54915 9.28187 3.88435 11.712 6.1793 11.4414C8.01526 11.2248 9.10424 9.63709 9.41923 8.87028C9.41923 8.87028 7.24507 10.9001 6.1793 8.87028Z" fill="white"/>
</svg>
