<svg width="45" height="45" viewBox="0 0 45 45" fill="none" xmlns="http://www.w3.org/2000/svg">
<path d="M3.75 22.5C4.88925 26.8972 11.2144 30.4375 14.0625 30.9372C16.341 36.5335 22.4644 37.0619 25.3125 36.5622L21.5625 30.9372C25.7397 30.5375 30.9138 26.2072 32.8125 24.3751C35.263 27.0472 39.193 29.138 41.25 29.9707C37.8323 22.7755 39.8259 16.2278 41.25 14.0626C38.5918 14.0626 34.553 17.0845 32.8125 18.7501C30.9138 16.7513 24.4106 13.9574 21.5625 13.1247L25.3125 8.4373C18.0973 7.63781 14.8537 11.1262 14.0625 13.125C6.84731 14.724 4.0665 20.3347 3.75 22.5Z" fill="white" stroke="white" stroke-width="2" stroke-linecap="round" stroke-linejoin="round"/>
<path d="M7.875 22.75C6.83947 22.75 6 21.9105 6 20.875C6 19.8395 6.83947 19 7.875 19C8.91053 19 9.75 19.8395 9.75 20.875C9.75 21.9105 8.91053 22.75 7.875 22.75Z" fill="#666666"/>
</svg>
