<svg width="308" height="24" viewBox="0 0 308 24" fill="none" xmlns="http://www.w3.org/2000/svg">
<path d="M0.123203 23L9.6932 0.349998H9.8732L19.4432 23H15.7832L8.8232 5.36L11.1332 3.83L3.2732 23H0.123203ZM5.9432 14.84H13.6832L14.7932 17.6H4.9832L5.9432 14.84ZM23.3491 23V0.499998H23.3791L34.9591 16.91L33.5791 16.61L45.0991 0.499998H45.1591V23H41.9791V7.73L42.1891 9.38L34.1491 20.75H34.0891L25.8991 9.38L26.4391 7.88V23H23.3491ZM59.3198 3.23H64.6598V23H61.4498V6.32H59.3198V3.23ZM77.0807 23.09C75.8807 23.09 74.7707 22.87 73.7507 22.43C72.7507 21.97 71.8807 21.31 71.1407 20.45C70.4007 19.59 69.8207 18.54 69.4007 17.3C68.9807 16.04 68.7707 14.62 68.7707 13.04C68.7707 11.32 68.9707 9.83 69.3707 8.57C69.7707 7.31 70.3307 6.27 71.0507 5.45C71.7907 4.61 72.6707 4 73.6907 3.62C74.7107 3.22 75.8407 3.02 77.0807 3.02C78.3007 3.02 79.4107 3.24 80.4107 3.68C81.4307 4.12 82.3107 4.77 83.0507 5.63C83.7907 6.49 84.3607 7.55 84.7607 8.81C85.1807 10.05 85.3907 11.46 85.3907 13.04C85.3907 14.66 85.1807 16.1 84.7607 17.36C84.3607 18.6 83.7807 19.65 83.0207 20.51C82.2807 21.35 81.4107 21.99 80.4107 22.43C79.4107 22.87 78.3007 23.09 77.0807 23.09ZM77.0507 20C78.1907 20 79.1307 19.71 79.8707 19.13C80.6107 18.53 81.1607 17.7 81.5207 16.64C81.8807 15.56 82.0607 14.33 82.0607 12.95C82.0607 11.61 81.8807 10.43 81.5207 9.41C81.1607 8.37 80.6107 7.56 79.8707 6.98C79.1307 6.38 78.1907 6.09 77.0507 6.11C75.9507 6.09 75.0307 6.38 74.2907 6.98C73.5507 7.56 73.0007 8.37 72.6407 9.41C72.2807 10.45 72.1007 11.66 72.1007 13.04C72.1007 14.38 72.2807 15.58 72.6407 16.64C73.0007 17.7 73.5507 18.53 74.2907 19.13C75.0307 19.71 75.9507 20 77.0507 20ZM96.8922 13.07C96.8922 12.57 97.0622 12.16 97.4022 11.84C97.7622 11.5 98.1522 11.33 98.5722 11.33C98.9722 11.33 99.3522 11.5 99.7122 11.84C100.072 12.16 100.252 12.56 100.252 13.04C100.252 13.56 100.072 13.98 99.7122 14.3C99.3522 14.6 98.9722 14.75 98.5722 14.75C98.1522 14.75 97.7622 14.6 97.4022 14.3C97.0622 14 96.8922 13.59 96.8922 13.07ZM96.8922 21.29C96.8922 20.81 97.0622 20.41 97.4022 20.09C97.7622 19.75 98.1522 19.58 98.5722 19.58C98.9722 19.58 99.3522 19.75 99.7122 20.09C100.072 20.41 100.252 20.81 100.252 21.29C100.252 21.81 100.072 22.23 99.7122 22.55C99.3522 22.85 98.9722 23 98.5722 23C98.1522 23 97.7622 22.85 97.4022 22.55C97.0622 22.23 96.8922 21.81 96.8922 21.29ZM120.235 23.09C119.035 23.09 117.925 22.87 116.905 22.43C115.905 21.97 115.035 21.31 114.295 20.45C113.555 19.59 112.975 18.54 112.555 17.3C112.135 16.04 111.925 14.62 111.925 13.04C111.925 11.32 112.125 9.83 112.525 8.57C112.925 7.31 113.485 6.27 114.205 5.45C114.945 4.61 115.825 4 116.845 3.62C117.865 3.22 118.995 3.02 120.235 3.02C121.455 3.02 122.565 3.24 123.565 3.68C124.585 4.12 125.465 4.77 126.205 5.63C126.945 6.49 127.515 7.55 127.915 8.81C128.335 10.05 128.545 11.46 128.545 13.04C128.545 14.66 128.335 16.1 127.915 17.36C127.515 18.6 126.935 19.65 126.175 20.51C125.435 21.35 124.565 21.99 123.565 22.43C122.565 22.87 121.455 23.09 120.235 23.09ZM120.205 20C121.345 20 122.285 19.71 123.025 19.13C123.765 18.53 124.315 17.7 124.675 16.64C125.035 15.56 125.215 14.33 125.215 12.95C125.215 11.61 125.035 10.43 124.675 9.41C124.315 8.37 123.765 7.56 123.025 6.98C122.285 6.38 121.345 6.09 120.205 6.11C119.105 6.09 118.185 6.38 117.445 6.98C116.705 7.56 116.155 8.37 115.795 9.41C115.435 10.45 115.255 11.66 115.255 13.04C115.255 14.38 115.435 15.58 115.795 16.64C116.155 17.7 116.705 18.53 117.445 19.13C118.185 19.71 119.105 20 120.205 20ZM138.956 23.09C137.756 23.09 136.646 22.87 135.626 22.43C134.626 21.97 133.756 21.31 133.016 20.45C132.276 19.59 131.696 18.54 131.276 17.3C130.856 16.04 130.646 14.62 130.646 13.04C130.646 11.32 130.846 9.83 131.246 8.57C131.646 7.31 132.206 6.27 132.926 5.45C133.666 4.61 134.546 4 135.566 3.62C136.586 3.22 137.716 3.02 138.956 3.02C140.176 3.02 141.286 3.24 142.286 3.68C143.306 4.12 144.186 4.77 144.926 5.63C145.666 6.49 146.236 7.55 146.636 8.81C147.056 10.05 147.266 11.46 147.266 13.04C147.266 14.66 147.056 16.1 146.636 17.36C146.236 18.6 145.656 19.65 144.896 20.51C144.156 21.35 143.286 21.99 142.286 22.43C141.286 22.87 140.176 23.09 138.956 23.09ZM138.926 20C140.066 20 141.006 19.71 141.746 19.13C142.486 18.53 143.036 17.7 143.396 16.64C143.756 15.56 143.936 14.33 143.936 12.95C143.936 11.61 143.756 10.43 143.396 9.41C143.036 8.37 142.486 7.56 141.746 6.98C141.006 6.38 140.066 6.09 138.926 6.11C137.826 6.09 136.906 6.38 136.166 6.98C135.426 7.56 134.876 8.37 134.516 9.41C134.156 10.45 133.976 11.66 133.976 13.04C133.976 14.38 134.156 15.58 134.516 16.64C134.876 17.7 135.426 18.53 136.166 19.13C136.906 19.71 137.826 20 138.926 20ZM159.487 15.11H165.067V17.81H159.487V15.11ZM185.589 1.22C187.209 1.22 188.589 1.5 189.729 2.06C190.889 2.6 191.769 3.38 192.369 4.4C192.989 5.42 193.299 6.66 193.299 8.12C193.299 8.98 193.169 9.83 192.909 10.67C192.649 11.51 192.229 12.28 191.649 12.98C191.089 13.66 190.339 14.21 189.399 14.63C188.459 15.03 187.319 15.23 185.979 15.23H182.799V23H179.589V1.22H185.589ZM185.979 12.14C186.779 12.14 187.449 12.01 187.989 11.75C188.529 11.47 188.949 11.12 189.249 10.7C189.569 10.28 189.789 9.85 189.909 9.41C190.049 8.95 190.119 8.54 190.119 8.18C190.119 7.78 190.049 7.36 189.909 6.92C189.789 6.46 189.579 6.04 189.279 5.66C188.979 5.26 188.569 4.94 188.049 4.7C187.529 4.44 186.879 4.31 186.099 4.31H182.799V12.14H185.979ZM197.665 23V0.499998H197.695L209.275 16.91L207.895 16.61L219.415 0.499998H219.475V23H216.295V7.73L216.505 9.38L208.465 20.75H208.405L200.215 9.38L200.755 7.88V23H197.665ZM246.086 3.23L238.286 23H234.686L241.616 5.87L242.696 6.29H233.066V3.23H246.086ZM257.293 13.07C257.293 12.57 257.463 12.16 257.803 11.84C258.163 11.5 258.553 11.33 258.973 11.33C259.373 11.33 259.753 11.5 260.113 11.84C260.473 12.16 260.653 12.56 260.653 13.04C260.653 13.56 260.473 13.98 260.113 14.3C259.753 14.6 259.373 14.75 258.973 14.75C258.553 14.75 258.163 14.6 257.803 14.3C257.463 14 257.293 13.59 257.293 13.07ZM257.293 21.29C257.293 20.81 257.463 20.41 257.803 20.09C258.163 19.75 258.553 19.58 258.973 19.58C259.373 19.58 259.753 19.75 260.113 20.09C260.473 20.41 260.653 20.81 260.653 21.29C260.653 21.81 260.473 22.23 260.113 22.55C259.753 22.85 259.373 23 258.973 23C258.553 23 258.163 22.85 257.803 22.55C257.463 22.23 257.293 21.81 257.293 21.29ZM280.635 23.09C279.435 23.09 278.325 22.87 277.305 22.43C276.305 21.97 275.435 21.31 274.695 20.45C273.955 19.59 273.375 18.54 272.955 17.3C272.535 16.04 272.325 14.62 272.325 13.04C272.325 11.32 272.525 9.83 272.925 8.57C273.325 7.31 273.885 6.27 274.605 5.45C275.345 4.61 276.225 4 277.245 3.62C278.265 3.22 279.395 3.02 280.635 3.02C281.855 3.02 282.965 3.24 283.965 3.68C284.985 4.12 285.865 4.77 286.605 5.63C287.345 6.49 287.915 7.55 288.315 8.81C288.735 10.05 288.945 11.46 288.945 13.04C288.945 14.66 288.735 16.1 288.315 17.36C287.915 18.6 287.335 19.65 286.575 20.51C285.835 21.35 284.965 21.99 283.965 22.43C282.965 22.87 281.855 23.09 280.635 23.09ZM280.605 20C281.745 20 282.685 19.71 283.425 19.13C284.165 18.53 284.715 17.7 285.075 16.64C285.435 15.56 285.615 14.33 285.615 12.95C285.615 11.61 285.435 10.43 285.075 9.41C284.715 8.37 284.165 7.56 283.425 6.98C282.685 6.38 281.745 6.09 280.605 6.11C279.505 6.09 278.585 6.38 277.845 6.98C277.105 7.56 276.555 8.37 276.195 9.41C275.835 10.45 275.655 11.66 275.655 13.04C275.655 14.38 275.835 15.58 276.195 16.64C276.555 17.7 277.105 18.53 277.845 19.13C278.585 19.71 279.505 20 280.605 20ZM299.356 23.09C298.156 23.09 297.046 22.87 296.026 22.43C295.026 21.97 294.156 21.31 293.416 20.45C292.676 19.59 292.096 18.54 291.676 17.3C291.256 16.04 291.046 14.62 291.046 13.04C291.046 11.32 291.246 9.83 291.646 8.57C292.046 7.31 292.606 6.27 293.326 5.45C294.066 4.61 294.946 4 295.966 3.62C296.986 3.22 298.116 3.02 299.356 3.02C300.576 3.02 301.686 3.24 302.686 3.68C303.706 4.12 304.586 4.77 305.326 5.63C306.066 6.49 306.636 7.55 307.036 8.81C307.456 10.05 307.666 11.46 307.666 13.04C307.666 14.66 307.456 16.1 307.036 17.36C306.636 18.6 306.056 19.65 305.296 20.51C304.556 21.35 303.686 21.99 302.686 22.43C301.686 22.87 300.576 23.09 299.356 23.09ZM299.326 20C300.466 20 301.406 19.71 302.146 19.13C302.886 18.53 303.436 17.7 303.796 16.64C304.156 15.56 304.336 14.33 304.336 12.95C304.336 11.61 304.156 10.43 303.796 9.41C303.436 8.37 302.886 7.56 302.146 6.98C301.406 6.38 300.466 6.09 299.326 6.11C298.226 6.09 297.306 6.38 296.566 6.98C295.826 7.56 295.276 8.37 294.916 9.41C294.556 10.45 294.376 11.66 294.376 13.04C294.376 14.38 294.556 15.58 294.916 16.64C295.276 17.7 295.826 18.53 296.566 19.13C297.306 19.71 298.226 20 299.326 20Z" fill="black"/>
</svg>
