<svg width="367" height="42" viewBox="0 0 367 42" fill="none" xmlns="http://www.w3.org/2000/svg">
<path d="M58.1232 29L67.6932 6.35H67.8732L77.4432 29H73.7832L66.8232 11.36L69.1332 9.83L61.2732 29H58.1232ZM63.9432 20.84H71.6832L72.7932 23.6H62.9832L63.9432 20.84ZM81.3491 29V6.5H81.3791L92.9591 22.91L91.5791 22.61L103.099 6.5H103.159V29H99.9791V13.73L100.189 15.38L92.1491 26.75H92.0891L83.8991 15.38L84.4391 13.88V29H81.3491ZM117.32 9.23H122.66V29H119.45V12.32H117.32V9.23ZM135.081 29.09C133.881 29.09 132.771 28.87 131.751 28.43C130.751 27.97 129.881 27.31 129.141 26.45C128.401 25.59 127.821 24.54 127.401 23.3C126.981 22.04 126.771 20.62 126.771 19.04C126.771 17.32 126.971 15.83 127.371 14.57C127.771 13.31 128.331 12.27 129.051 11.45C129.791 10.61 130.671 10 131.691 9.62C132.711 9.22 133.841 9.02 135.081 9.02C136.301 9.02 137.411 9.24 138.411 9.68C139.431 10.12 140.311 10.77 141.051 11.63C141.791 12.49 142.361 13.55 142.761 14.81C143.181 16.05 143.391 17.46 143.391 19.04C143.391 20.66 143.181 22.1 142.761 23.36C142.361 24.6 141.781 25.65 141.021 26.51C140.281 27.35 139.411 27.99 138.411 28.43C137.411 28.87 136.301 29.09 135.081 29.09ZM135.051 26C136.191 26 137.131 25.71 137.871 25.13C138.611 24.53 139.161 23.7 139.521 22.64C139.881 21.56 140.061 20.33 140.061 18.95C140.061 17.61 139.881 16.43 139.521 15.41C139.161 14.37 138.611 13.56 137.871 12.98C137.131 12.38 136.191 12.09 135.051 12.11C133.951 12.09 133.031 12.38 132.291 12.98C131.551 13.56 131.001 14.37 130.641 15.41C130.281 16.45 130.101 17.66 130.101 19.04C130.101 20.38 130.281 21.58 130.641 22.64C131.001 23.7 131.551 24.53 132.291 25.13C133.031 25.71 133.951 26 135.051 26ZM154.892 19.07C154.892 18.57 155.062 18.16 155.402 17.84C155.762 17.5 156.152 17.33 156.572 17.33C156.972 17.33 157.352 17.5 157.712 17.84C158.072 18.16 158.252 18.56 158.252 19.04C158.252 19.56 158.072 19.98 157.712 20.3C157.352 20.6 156.972 20.75 156.572 20.75C156.152 20.75 155.762 20.6 155.402 20.3C155.062 20 154.892 19.59 154.892 19.07ZM154.892 27.29C154.892 26.81 155.062 26.41 155.402 26.09C155.762 25.75 156.152 25.58 156.572 25.58C156.972 25.58 157.352 25.75 157.712 26.09C158.072 26.41 158.252 26.81 158.252 27.29C158.252 27.81 158.072 28.23 157.712 28.55C157.352 28.85 156.972 29 156.572 29C156.152 29 155.762 28.85 155.402 28.55C155.062 28.23 154.892 27.81 154.892 27.29ZM178.235 29.09C177.035 29.09 175.925 28.87 174.905 28.43C173.905 27.97 173.035 27.31 172.295 26.45C171.555 25.59 170.975 24.54 170.555 23.3C170.135 22.04 169.925 20.62 169.925 19.04C169.925 17.32 170.125 15.83 170.525 14.57C170.925 13.31 171.485 12.27 172.205 11.45C172.945 10.61 173.825 10 174.845 9.62C175.865 9.22 176.995 9.02 178.235 9.02C179.455 9.02 180.565 9.24 181.565 9.68C182.585 10.12 183.465 10.77 184.205 11.63C184.945 12.49 185.515 13.55 185.915 14.81C186.335 16.05 186.545 17.46 186.545 19.04C186.545 20.66 186.335 22.1 185.915 23.36C185.515 24.6 184.935 25.65 184.175 26.51C183.435 27.35 182.565 27.99 181.565 28.43C180.565 28.87 179.455 29.09 178.235 29.09ZM178.205 26C179.345 26 180.285 25.71 181.025 25.13C181.765 24.53 182.315 23.7 182.675 22.64C183.035 21.56 183.215 20.33 183.215 18.95C183.215 17.61 183.035 16.43 182.675 15.41C182.315 14.37 181.765 13.56 181.025 12.98C180.285 12.38 179.345 12.09 178.205 12.11C177.105 12.09 176.185 12.38 175.445 12.98C174.705 13.56 174.155 14.37 173.795 15.41C173.435 16.45 173.255 17.66 173.255 19.04C173.255 20.38 173.435 21.58 173.795 22.64C174.155 23.7 174.705 24.53 175.445 25.13C176.185 25.71 177.105 26 178.205 26ZM196.956 29.09C195.756 29.09 194.646 28.87 193.626 28.43C192.626 27.97 191.756 27.31 191.016 26.45C190.276 25.59 189.696 24.54 189.276 23.3C188.856 22.04 188.646 20.62 188.646 19.04C188.646 17.32 188.846 15.83 189.246 14.57C189.646 13.31 190.206 12.27 190.926 11.45C191.666 10.61 192.546 10 193.566 9.62C194.586 9.22 195.716 9.02 196.956 9.02C198.176 9.02 199.286 9.24 200.286 9.68C201.306 10.12 202.186 10.77 202.926 11.63C203.666 12.49 204.236 13.55 204.636 14.81C205.056 16.05 205.266 17.46 205.266 19.04C205.266 20.66 205.056 22.1 204.636 23.36C204.236 24.6 203.656 25.65 202.896 26.51C202.156 27.35 201.286 27.99 200.286 28.43C199.286 28.87 198.176 29.09 196.956 29.09ZM196.926 26C198.066 26 199.006 25.71 199.746 25.13C200.486 24.53 201.036 23.7 201.396 22.64C201.756 21.56 201.936 20.33 201.936 18.95C201.936 17.61 201.756 16.43 201.396 15.41C201.036 14.37 200.486 13.56 199.746 12.98C199.006 12.38 198.066 12.09 196.926 12.11C195.826 12.09 194.906 12.38 194.166 12.98C193.426 13.56 192.876 14.37 192.516 15.41C192.156 16.45 191.976 17.66 191.976 19.04C191.976 20.38 192.156 21.58 192.516 22.64C192.876 23.7 193.426 24.53 194.166 25.13C194.906 25.71 195.826 26 196.926 26ZM217.487 21.11H223.067V23.81H217.487V21.11ZM243.589 7.22C245.209 7.22 246.589 7.5 247.729 8.06C248.889 8.6 249.769 9.38 250.369 10.4C250.989 11.42 251.299 12.66 251.299 14.12C251.299 14.98 251.169 15.83 250.909 16.67C250.649 17.51 250.229 18.28 249.649 18.98C249.089 19.66 248.339 20.21 247.399 20.63C246.459 21.03 245.319 21.23 243.979 21.23H240.799V29H237.589V7.22H243.589ZM243.979 18.14C244.779 18.14 245.449 18.01 245.989 17.75C246.529 17.47 246.949 17.12 247.249 16.7C247.569 16.28 247.789 15.85 247.909 15.41C248.049 14.95 248.119 14.54 248.119 14.18C248.119 13.78 248.049 13.36 247.909 12.92C247.789 12.46 247.579 12.04 247.279 11.66C246.979 11.26 246.569 10.94 246.049 10.7C245.529 10.44 244.879 10.31 244.099 10.31H240.799V18.14H243.979ZM255.665 29V6.5H255.695L267.275 22.91L265.895 22.61L277.415 6.5H277.475V29H274.295V13.73L274.505 15.38L266.465 26.75H266.405L258.215 15.38L258.755 13.88V29H255.665ZM304.086 9.23L296.286 29H292.686L299.616 11.87L300.696 12.29H291.066V9.23H304.086ZM315.293 19.07C315.293 18.57 315.463 18.16 315.803 17.84C316.163 17.5 316.553 17.33 316.973 17.33C317.373 17.33 317.753 17.5 318.113 17.84C318.473 18.16 318.653 18.56 318.653 19.04C318.653 19.56 318.473 19.98 318.113 20.3C317.753 20.6 317.373 20.75 316.973 20.75C316.553 20.75 316.163 20.6 315.803 20.3C315.463 20 315.293 19.59 315.293 19.07ZM315.293 27.29C315.293 26.81 315.463 26.41 315.803 26.09C316.163 25.75 316.553 25.58 316.973 25.58C317.373 25.58 317.753 25.75 318.113 26.09C318.473 26.41 318.653 26.81 318.653 27.29C318.653 27.81 318.473 28.23 318.113 28.55C317.753 28.85 317.373 29 316.973 29C316.553 29 316.163 28.85 315.803 28.55C315.463 28.23 315.293 27.81 315.293 27.29ZM338.635 29.09C337.435 29.09 336.325 28.87 335.305 28.43C334.305 27.97 333.435 27.31 332.695 26.45C331.955 25.59 331.375 24.54 330.955 23.3C330.535 22.04 330.325 20.62 330.325 19.04C330.325 17.32 330.525 15.83 330.925 14.57C331.325 13.31 331.885 12.27 332.605 11.45C333.345 10.61 334.225 10 335.245 9.62C336.265 9.22 337.395 9.02 338.635 9.02C339.855 9.02 340.965 9.24 341.965 9.68C342.985 10.12 343.865 10.77 344.605 11.63C345.345 12.49 345.915 13.55 346.315 14.81C346.735 16.05 346.945 17.46 346.945 19.04C346.945 20.66 346.735 22.1 346.315 23.36C345.915 24.6 345.335 25.65 344.575 26.51C343.835 27.35 342.965 27.99 341.965 28.43C340.965 28.87 339.855 29.09 338.635 29.09ZM338.605 26C339.745 26 340.685 25.71 341.425 25.13C342.165 24.53 342.715 23.7 343.075 22.64C343.435 21.56 343.615 20.33 343.615 18.95C343.615 17.61 343.435 16.43 343.075 15.41C342.715 14.37 342.165 13.56 341.425 12.98C340.685 12.38 339.745 12.09 338.605 12.11C337.505 12.09 336.585 12.38 335.845 12.98C335.105 13.56 334.555 14.37 334.195 15.41C333.835 16.45 333.655 17.66 333.655 19.04C333.655 20.38 333.835 21.58 334.195 22.64C334.555 23.7 335.105 24.53 335.845 25.13C336.585 25.71 337.505 26 338.605 26ZM357.356 29.09C356.156 29.09 355.046 28.87 354.026 28.43C353.026 27.97 352.156 27.31 351.416 26.45C350.676 25.59 350.096 24.54 349.676 23.3C349.256 22.04 349.046 20.62 349.046 19.04C349.046 17.32 349.246 15.83 349.646 14.57C350.046 13.31 350.606 12.27 351.326 11.45C352.066 10.61 352.946 10 353.966 9.62C354.986 9.22 356.116 9.02 357.356 9.02C358.576 9.02 359.686 9.24 360.686 9.68C361.706 10.12 362.586 10.77 363.326 11.63C364.066 12.49 364.636 13.55 365.036 14.81C365.456 16.05 365.666 17.46 365.666 19.04C365.666 20.66 365.456 22.1 365.036 23.36C364.636 24.6 364.056 25.65 363.296 26.51C362.556 27.35 361.686 27.99 360.686 28.43C359.686 28.87 358.576 29.09 357.356 29.09ZM357.326 26C358.466 26 359.406 25.71 360.146 25.13C360.886 24.53 361.436 23.7 361.796 22.64C362.156 21.56 362.336 20.33 362.336 18.95C362.336 17.61 362.156 16.43 361.796 15.41C361.436 14.37 360.886 13.56 360.146 12.98C359.406 12.38 358.466 12.09 357.326 12.11C356.226 12.09 355.306 12.38 354.566 12.98C353.826 13.56 353.276 14.37 352.916 15.41C352.556 16.45 352.376 17.66 352.376 19.04C352.376 20.38 352.556 21.58 352.916 22.64C353.276 23.7 353.826 24.53 354.566 25.13C355.306 25.71 356.226 26 357.326 26Z" fill="white"/>
<path d="M21 9V21L29 25" stroke="white" stroke-width="2" stroke-linecap="round" stroke-linejoin="round"/>
<path d="M21 41C32.0457 41 41 32.0457 41 21C41 9.9543 32.0457 1 21 1C9.9543 1 1 9.9543 1 21C1 32.0457 9.9543 41 21 41Z" stroke="white" stroke-width="2" stroke-linecap="round" stroke-linejoin="round"/>
</svg>
