<svg width="228" height="228" viewBox="0 0 228 228" fill="none" xmlns="http://www.w3.org/2000/svg">
<path fill-rule="evenodd" clip-rule="evenodd" d="M47.7031 116.047C24.0547 126.672 8.53125 142.758 8.53125 161.211C8.53125 181.023 26.4375 198.101 53.0547 208.633C55.0547 209.43 56.0391 211.695 55.25 213.703C54.4531 215.711 52.1797 216.687 50.1797 215.898C20.0078 203.961 0.71875 183.672 0.71875 161.211C0.71875 138.359 20.7109 117.75 51.7969 105.898C53.1953 105.367 54.7734 105.679 55.8672 106.703C56.9531 107.726 57.3672 109.281 56.9219 110.711C55.8047 114.289 55.1641 117.695 55.1641 120.898C55.1641 125.242 55.6484 129.469 56.5625 133.539C56.9062 135.054 56.3203 136.625 55.0703 137.539C46.125 144.133 40.5781 152.258 40.5781 161.211C40.5781 169.804 45.6875 177.633 53.9922 184.07C67.5234 194.562 89.3906 201.25 114 201.25C137.156 201.25 157.883 195.32 171.539 185.875C173.313 184.648 175.75 185.094 176.977 186.867C178.203 188.64 177.758 191.078 175.984 192.304C161.266 202.484 138.969 209.062 114 209.062C87.3984 209.062 63.8359 201.586 49.2109 190.25C38.75 182.14 32.7656 172.031 32.7656 161.211C32.7656 150.672 38.4609 140.789 48.4375 132.789C47.7266 128.929 47.3516 124.961 47.3516 120.898C47.3516 119.328 47.4766 117.703 47.7031 116.047Z" fill="#ED653E"/>
<path fill-rule="evenodd" clip-rule="evenodd" d="M176.922 130.781C183.57 135.562 188.625 141.101 191.711 147.094C192.695 149.015 191.938 151.367 190.016 152.351C188.102 153.344 185.742 152.586 184.758 150.664C181.906 145.117 176.953 140.109 170.492 135.844C169.172 134.969 168.508 133.39 168.813 131.844C169.492 128.305 169.852 124.64 169.852 120.898C169.852 117.429 169.32 113.578 168.375 109.453C168.055 108.062 168.523 106.609 169.594 105.656C170.656 104.711 172.156 104.422 173.5 104.898C206.109 116.578 227.281 137.711 227.281 161.211C227.281 176.047 219 189.883 204.656 201C184.195 216.859 151.219 227.281 114 227.281C111.844 227.281 110.094 225.531 110.094 223.375C110.094 221.219 111.844 219.469 114 219.469C149.227 219.469 180.508 209.836 199.867 194.828C212.062 185.375 219.469 173.828 219.469 161.211C219.469 141.969 202.625 125.305 177.258 114.726C177.523 116.883 177.664 118.945 177.664 120.898C177.664 124.258 177.414 127.562 176.922 130.781Z" fill="#ED653E"/>
<path fill-rule="evenodd" clip-rule="evenodd" d="M115.117 1.71862C113.867 0.585807 112.023 0.398307 110.555 1.24206C109.094 2.08581 108.336 3.77331 108.688 5.42956C109.352 8.59362 108.313 12.4374 106.414 16.8436C103.078 24.5936 96.9531 33.7186 89.9375 43.4842C79.0547 58.6483 66.0625 75.2889 57.3984 90.7186C51.2891 101.609 47.3516 111.976 47.3516 120.898C47.3516 156.859 76.5469 186.055 112.508 186.055C148.469 186.055 177.664 156.859 177.664 120.898C177.664 106.476 169.758 86.1717 159.258 66.3124C143.742 36.9842 122.758 8.57799 115.117 1.71862ZM115.727 13.8749C115.211 15.8046 114.5 17.828 113.586 19.9374C110.07 28.1014 103.672 37.7499 96.2813 48.0389C85.5703 62.9764 72.7422 79.3436 64.2109 94.5467C58.8594 104.086 55.1641 113.086 55.1641 120.898C55.1641 152.547 80.8594 178.242 112.508 178.242C144.156 178.242 169.852 152.547 169.852 120.898C169.852 107.414 162.164 88.5311 152.352 69.9608C140.383 47.3358 125.133 25.2186 115.727 13.8749Z" fill="#ED653E"/>
<path fill-rule="evenodd" clip-rule="evenodd" d="M122.43 164.734C125.078 164.313 127.664 163.531 130.172 162.578C156.578 152.586 160.422 122.047 156.93 97.8204C156.625 95.6876 154.641 94.2032 152.508 94.5079C150.375 94.8126 148.891 96.797 149.195 98.9298C150.742 109.664 150.867 121.859 147.625 132.484C144.57 142.5 138.445 151.094 127.406 155.274C125.398 156.039 123.32 156.68 121.195 157.016C119.07 157.359 117.617 159.359 117.953 161.492C118.297 163.617 120.297 165.07 122.43 164.734Z" fill="#ED653E"/>
</svg>
