<svg width="250" height="250" viewBox="0 0 250 250" fill="none" xmlns="http://www.w3.org/2000/svg">
<path fill-rule="evenodd" clip-rule="evenodd" d="M58.7031 127.047C35.0547 137.672 19.5313 153.758 19.5313 172.211C19.5313 192.023 37.4375 209.101 64.0547 219.633C66.0547 220.43 67.0391 222.695 66.25 224.703C65.4531 226.711 63.1797 227.687 61.1797 226.898C31.0078 214.961 11.7188 194.672 11.7188 172.211C11.7188 149.359 31.7109 128.75 62.7969 116.898C64.1953 116.367 65.7734 116.679 66.8672 117.703C67.9531 118.726 68.3672 120.281 67.9219 121.711C66.8047 125.289 66.1641 128.695 66.1641 131.898C66.1641 136.242 66.6484 140.469 67.5625 144.539C67.9062 146.054 67.3203 147.625 66.0703 148.539C57.125 155.133 51.5781 163.258 51.5781 172.211C51.5781 180.804 56.6875 188.633 64.9922 195.07C78.5234 205.562 100.391 212.25 125 212.25C148.156 212.25 168.883 206.32 182.539 196.875C184.313 195.648 186.75 196.094 187.977 197.867C189.203 199.64 188.758 202.078 186.984 203.304C172.266 213.484 149.969 220.062 125 220.062C98.3984 220.062 74.8359 212.586 60.2109 201.25C49.75 193.14 43.7656 183.031 43.7656 172.211C43.7656 161.672 49.4609 151.789 59.4375 143.789C58.7266 139.929 58.3516 135.961 58.3516 131.898C58.3516 130.328 58.4766 128.703 58.7031 127.047Z" fill="#ED653E"/>
<path fill-rule="evenodd" clip-rule="evenodd" d="M187.922 141.781C194.57 146.562 199.625 152.101 202.711 158.094C203.695 160.015 202.938 162.367 201.016 163.351C199.102 164.344 196.742 163.586 195.758 161.664C192.906 156.117 187.953 151.109 181.492 146.844C180.172 145.969 179.508 144.39 179.813 142.844C180.492 139.305 180.852 135.64 180.852 131.898C180.852 128.429 180.32 124.578 179.375 120.453C179.055 119.062 179.523 117.609 180.594 116.656C181.656 115.711 183.156 115.422 184.5 115.898C217.109 127.578 238.281 148.711 238.281 172.211C238.281 187.047 230 200.883 215.656 212C195.195 227.859 162.219 238.281 125 238.281C122.844 238.281 121.094 236.531 121.094 234.375C121.094 232.219 122.844 230.469 125 230.469C160.227 230.469 191.508 220.836 210.867 205.828C223.062 196.375 230.469 184.828 230.469 172.211C230.469 152.969 213.625 136.305 188.258 125.726C188.523 127.883 188.664 129.945 188.664 131.898C188.664 135.258 188.414 138.562 187.922 141.781Z" fill="#ED653E"/>
<path fill-rule="evenodd" clip-rule="evenodd" d="M126.117 12.7186C124.867 11.5858 123.023 11.3983 121.555 12.2421C120.094 13.0858 119.336 14.7733 119.688 16.4296C120.352 19.5936 119.313 23.4374 117.414 27.8436C114.078 35.5936 107.953 44.7186 100.938 54.4842C90.0547 69.6483 77.0625 86.2889 68.3984 101.719C62.2891 112.609 58.3516 122.976 58.3516 131.898C58.3516 167.859 87.5469 197.055 123.508 197.055C159.469 197.055 188.664 167.859 188.664 131.898C188.664 117.476 180.758 97.1717 170.258 77.3124C154.742 47.9842 133.758 19.578 126.117 12.7186ZM126.727 24.8749C126.211 26.8046 125.5 28.828 124.586 30.9374C121.07 39.1014 114.672 48.7499 107.281 59.0389C96.5703 73.9764 83.7422 90.3436 75.2109 105.547C69.8594 115.086 66.1641 124.086 66.1641 131.898C66.1641 163.547 91.8594 189.242 123.508 189.242C155.156 189.242 180.852 163.547 180.852 131.898C180.852 118.414 173.164 99.5311 163.352 80.9608C151.383 58.3358 136.133 36.2186 126.727 24.8749Z" fill="#ED653E"/>
<path fill-rule="evenodd" clip-rule="evenodd" d="M133.43 175.734C136.078 175.313 138.664 174.531 141.172 173.578C167.578 163.586 171.422 133.047 167.93 108.82C167.625 106.688 165.641 105.203 163.508 105.508C161.375 105.813 159.891 107.797 160.195 109.93C161.742 120.664 161.867 132.859 158.625 143.484C155.57 153.5 149.445 162.094 138.406 166.274C136.398 167.039 134.32 167.68 132.195 168.016C130.07 168.359 128.617 170.359 128.953 172.492C129.297 174.617 131.297 176.07 133.43 175.734Z" fill="#ED653E"/>
</svg>
