<svg width="226" height="208" viewBox="0 0 226 208" fill="none" xmlns="http://www.w3.org/2000/svg">
<path d="M31.6597 45.5981C33.1075 45.5981 34.2812 44.4244 34.2812 42.9766C34.2812 41.5287 33.1075 40.355 31.6597 40.355C30.2118 40.355 29.0381 41.5287 29.0381 42.9766C29.0381 44.4244 30.2118 45.5981 31.6597 45.5981Z" fill="#ED653E"/>
<path d="M225.397 199.794C223.893 188.176 213.891 175.661 205.034 170.193L199.861 166.256C197.919 164.779 196.51 162.666 195.891 160.306C195.687 159.531 195.912 158.475 196.171 157.253C196.224 157.005 196.277 156.756 196.326 156.508C197.777 149.3 198.846 142.115 199.514 135.104C199.683 133.336 198.371 131.774 196.6 131.635H196.598C194.875 131.5 193.36 132.768 193.196 134.489C192.549 141.287 191.511 148.258 190.103 155.256C190.057 155.483 190.009 155.708 189.962 155.934C189.606 157.605 189.164 159.686 189.75 161.918C190.727 165.642 192.952 168.976 196.016 171.308L201.316 175.341L201.586 175.525C208.679 179.85 216.98 190.116 218.853 199.144C215.798 195.251 210.105 188.451 195.383 188.955C195.303 188.957 195.225 188.958 195.146 188.958C187.714 188.958 184.492 177.071 184.462 176.956L183.994 175.155L178.687 173.77L177.397 175.1C177.308 175.191 168.489 184.154 161.99 180.205C149.346 172.517 141.055 175.701 136.493 177.594C141.799 171.252 152.484 165.832 160.488 165.553L171.696 165.161C174.39 165.066 176.847 163.764 178.438 161.587C180.538 158.712 181.417 155.19 180.93 151.649C179.557 119.828 172.346 94.1518 159.494 75.3344C149.459 60.6401 135.979 50.0453 119.392 43.8041C117.719 43.1747 115.857 44.0766 115.286 45.7709C114.738 47.3993 115.591 49.1547 117.199 49.7597C144.542 60.0439 162.262 82.5663 170.131 116.925C165.658 107.883 159.558 98.6669 151.232 90.0922C136.557 74.9789 117.601 64.412 96.4137 59.5351C90.6984 58.2196 84.8942 57.3393 79.0504 56.8827C78.9967 56.8793 78.944 56.8725 78.8903 56.8691C63.1925 55.6654 47.2086 57.5517 31.8737 62.4872L11.2765 68.9589C10.8917 69.08 10.4952 69.1254 10.1036 69.101C15.3243 67.1503 23.8688 63.5282 32.1881 58.1112C46.3756 48.8744 62.4088 43.8554 78.5543 43.5966C86.3053 43.4716 93.7741 44.0439 100.798 45.2963C102.491 45.5981 104.118 44.5141 104.472 42.8315L104.473 42.83C104.84 41.0834 103.698 39.3666 101.942 39.0531C94.508 37.7255 86.6232 37.1195 78.4528 37.2499C61.1105 37.5273 43.9147 42.9018 28.7243 52.7914C20.4987 58.1469 11.8478 61.6967 7.04749 63.453C7.41761 61.726 8.46937 60.1679 10.0563 59.1908L19.3375 53.476L19.5944 52.0907C23.6041 30.4799 38.9 19.642 51.026 14.3554C78.6608 2.30753 119.182 5.70158 145.284 22.2509L145.366 22.3012C185.921 46.3305 194.375 87.9316 193.994 119.763C193.973 121.496 195.336 122.927 197.069 122.98C198.846 123.034 200.32 121.615 200.341 119.837C200.599 98.2953 196.871 78.891 189.245 62.1171C184.15 50.9081 177.381 41.0639 169.022 32.662L169.014 32.539C168.918 31.0312 168.623 26.4428 172.96 21.516C175.034 19.1586 178.101 17.9799 182.332 17.9154C184.024 17.8901 185.635 17.0033 186.372 15.4804C187.306 13.5502 186.715 11.2953 185.036 10.0697C175.808 3.33976 164.732 1.92765 155.114 1.434C144.498 0.888097 132.441 0.824621 116.285 3.92618C93.2951 -1.23056 67.9088 0.0702267 48.4889 8.53654C29.5504 16.7934 17.5236 30.9506 13.6285 49.5365L6.72718 53.7856C1.66468 56.9032 -0.630244 63.037 1.13929 68.7099C1.64808 70.3412 2.54163 71.8261 3.82142 72.9579C6.47767 75.308 9.9596 76.0243 13.1784 75.0141L33.798 68.5341C49.0827 63.6147 64.8971 61.997 80.1715 63.4325C87.1398 64.9194 92.4054 72.8627 94.7496 76.4023L95.0827 76.9032C96.7555 79.4145 99.8312 84.7929 100.464 86.6855C101.617 90.1137 104.201 92.832 107.551 94.144C108.968 94.6987 110.453 94.9736 111.935 94.9736C113.92 94.9731 115.897 94.4789 117.688 93.5024L118.003 93.3305C122.59 90.8266 125.034 85.704 124.085 80.5863C123.829 79.203 123.487 77.8529 123.079 76.5317C131.747 81.3261 139.717 87.3422 146.678 94.5112C165.419 113.811 172.222 136.642 174.629 152.394C174.925 154.337 174.458 156.27 173.315 157.837C172.883 158.428 172.205 158.788 171.474 158.814L160.267 159.206C149.898 159.568 136.913 166.365 130.706 174.679C129.248 176.633 128.889 179.232 129.772 181.464C130.336 182.892 131.244 183.878 132.468 184.397C134.547 185.275 136.54 184.446 138.65 183.568C142.589 181.93 148.542 179.453 158.693 185.625C166.675 190.479 175.252 185.144 179.417 181.788C181.367 186.67 186.091 195.306 195.114 195.304C195.273 195.304 195.435 195.302 195.596 195.296C207.479 194.899 211.443 199.973 214.072 203.333C215.543 205.213 216.932 206.988 219.334 207.109C219.411 207.114 219.488 207.116 219.565 207.116C220.995 207.115 222.365 206.442 223.642 205.112C224.999 203.697 225.639 201.779 225.402 199.845L225.397 199.794ZM154.79 7.77335C162.12 8.14982 169.711 9.01407 176.488 12.3139C173.125 13.2011 170.349 14.8759 168.196 17.3227C165.552 20.3266 163.851 23.6239 163.093 27.1693C158.651 23.3813 153.832 19.9423 148.643 16.8647C143.22 13.4306 137.205 10.5395 130.827 8.19278C140.025 7.26896 147.736 7.41154 154.79 7.77335ZM114.964 87.7587L114.649 87.9306C113.152 88.7485 111.452 88.8559 109.867 88.2348C108.269 87.6083 107.034 86.3061 106.482 84.6669C105.555 81.8954 102.007 75.849 100.365 73.3842L100.042 72.8979C98.8673 71.1239 97.0827 68.4335 94.7101 65.7597C101.428 67.2905 107.964 69.433 114.217 72.164C115.988 75.0834 117.207 78.2983 117.843 81.7431C118.292 84.1572 117.134 86.5746 114.964 87.7587Z" fill="#ED653E"/>
</svg>
