<svg width="250" height="250" viewBox="0 0 250 250" fill="none" xmlns="http://www.w3.org/2000/svg">
<path d="M43.6597 66.5981C45.1075 66.5981 46.2812 65.4244 46.2812 63.9766C46.2812 62.5287 45.1075 61.355 43.6597 61.355C42.2118 61.355 41.0381 62.5287 41.0381 63.9766C41.0381 65.4244 42.2118 66.5981 43.6597 66.5981Z" fill="#ED653E"/>
<path d="M237.396 220.794C235.892 209.176 225.891 196.661 217.034 191.193L211.86 187.256C209.919 185.779 208.51 183.666 207.891 181.306C207.687 180.531 207.912 179.475 208.171 178.253C208.224 178.005 208.276 177.756 208.326 177.508C209.777 170.3 210.846 163.115 211.514 156.104C211.683 154.336 210.371 152.774 208.6 152.635H208.598C206.874 152.5 205.36 153.768 205.196 155.489C204.549 162.287 203.511 169.258 202.103 176.256C202.057 176.483 202.009 176.708 201.961 176.934C201.606 178.605 201.164 180.686 201.75 182.918C202.726 186.642 204.952 189.976 208.016 192.308L213.316 196.341L213.585 196.525C220.679 200.85 228.98 211.116 230.852 220.144C227.798 216.251 222.104 209.451 207.383 209.955C207.303 209.957 207.225 209.958 207.146 209.958C199.714 209.958 196.492 198.071 196.461 197.956L195.994 196.155L190.687 194.77L189.396 196.1C189.308 196.191 180.489 205.154 173.99 201.205C161.346 193.517 153.055 196.701 148.493 198.594C153.799 192.252 164.484 186.832 172.488 186.553L183.696 186.161C186.39 186.066 188.847 184.764 190.437 182.587C192.537 179.712 193.416 176.19 192.93 172.649C191.557 140.828 184.346 115.152 171.494 96.3344C161.458 81.6401 147.979 71.0453 131.392 64.8041C129.719 64.1747 127.856 65.0766 127.286 66.7709C126.738 68.3993 127.591 70.1547 129.199 70.7597C156.541 81.0439 174.262 103.566 182.13 137.925C177.658 128.883 171.558 119.667 163.231 111.092C148.557 95.9789 129.601 85.412 108.413 80.5351C102.698 79.2196 96.8939 78.3393 91.0502 77.8827C90.9965 77.8793 90.9437 77.8725 90.89 77.8691C75.1923 76.6654 59.2084 78.5517 43.8734 83.4872L23.2763 89.9589C22.8915 90.08 22.495 90.1254 22.1034 90.101C27.3241 88.1503 35.8685 84.5282 44.1879 79.1112C58.3754 69.8744 74.4086 64.8554 90.5541 64.5966C98.3051 64.4716 105.774 65.0439 112.797 66.2963C114.491 66.5981 116.118 65.5141 116.472 63.8315L116.473 63.83C116.84 62.0834 115.698 60.3666 113.941 60.0531C106.508 58.7255 98.6229 58.1195 90.4525 58.2499C73.1102 58.5273 55.9144 63.9018 40.724 73.7914C32.4984 79.1469 23.8475 82.6967 19.0472 84.453C19.4174 82.726 20.4691 81.1679 22.056 80.1908L31.3373 74.476L31.5941 73.0907C35.6039 51.4799 50.8998 40.642 63.0258 35.3554C90.6605 23.3075 131.182 26.7016 157.284 43.2509L157.366 43.3012C197.921 67.3305 206.374 108.932 205.994 140.763C205.973 142.496 207.336 143.927 209.069 143.98C210.846 144.034 212.32 142.615 212.341 140.837C212.599 119.295 208.871 99.891 201.245 83.1171C196.149 71.9081 189.381 62.0639 181.022 53.662L181.014 53.539C180.917 52.0312 180.623 47.4428 184.959 42.516C187.034 40.1586 190.101 38.9799 194.331 38.9154C196.023 38.8901 197.635 38.0033 198.372 36.4804C199.306 34.5502 198.715 32.2953 197.036 31.0697C187.808 24.3398 176.731 22.9276 167.114 22.434C156.498 21.8881 144.441 21.8246 128.285 24.9262C105.295 19.7694 79.9086 21.0702 60.4887 29.5365C41.5502 37.7934 29.5233 51.9506 25.6283 70.5365L18.7269 74.7856C13.6644 77.9032 11.3695 84.037 13.139 89.7099C13.6478 91.3412 14.5414 92.8261 15.8212 93.9579C18.4774 96.308 21.9594 97.0243 25.1781 96.0141L45.7977 89.5341C61.0824 84.6147 76.8969 82.997 92.1713 84.4325C99.1395 85.9194 104.405 93.8627 106.749 97.4023L107.082 97.9032C108.755 100.414 111.831 105.793 112.464 107.685C113.617 111.114 116.201 113.832 119.551 115.144C120.968 115.699 122.453 115.974 123.934 115.974C125.919 115.973 127.897 115.479 129.687 114.502L130.003 114.33C134.59 111.827 137.034 106.704 136.084 101.586C135.829 100.203 135.487 98.8529 135.079 97.5317C143.747 102.326 151.717 108.342 158.678 115.511C177.419 134.811 184.222 157.642 186.628 173.394C186.925 175.337 186.458 177.27 185.314 178.837C184.883 179.428 184.205 179.788 183.474 179.814L172.267 180.206C161.898 180.568 148.913 187.365 142.706 195.679C141.247 197.633 140.889 200.232 141.771 202.464C142.336 203.892 143.244 204.878 144.468 205.397C146.546 206.275 148.539 205.446 150.65 204.568C154.589 202.93 160.542 200.453 170.693 206.625C178.675 211.479 187.251 206.144 191.417 202.788C193.367 207.67 198.091 216.306 207.114 216.304C207.272 216.304 207.434 216.302 207.596 216.296C219.478 215.899 223.442 220.973 226.072 224.333C227.543 226.213 228.932 227.988 231.333 228.109C231.411 228.114 231.488 228.116 231.565 228.116C232.995 228.115 234.365 227.442 235.642 226.112C236.999 224.697 237.639 222.779 237.402 220.845L237.396 220.794ZM166.79 28.7734C174.12 29.1498 181.71 30.0141 188.488 33.3139C185.125 34.2011 182.349 35.8759 180.196 38.3227C177.552 41.3266 175.85 44.6239 175.093 48.1693C170.65 44.3813 165.832 40.9423 160.643 37.8647C155.22 34.4306 149.205 31.5395 142.827 29.1928C152.024 28.269 159.736 28.4115 166.79 28.7734ZM126.964 108.759L126.649 108.931C125.151 109.748 123.452 109.856 121.867 109.235C120.268 108.608 119.034 107.306 118.482 105.667C117.555 102.895 114.007 96.849 112.365 94.3842L112.042 93.8979C110.867 92.1239 109.082 89.4335 106.71 86.7597C113.428 88.2905 119.964 90.433 126.217 93.164C127.988 96.0834 129.207 99.2983 129.843 102.743C130.291 105.157 129.134 107.575 126.964 108.759Z" fill="#ED653E"/>
</svg>
