<svg width="300" height="300" viewBox="0 0 300 300" fill="none" xmlns="http://www.w3.org/2000/svg">
<path d="M62.5803 211.072C62.6184 211.086 62.6515 211.111 62.6904 211.124C68.674 213.726 75.1685 215.125 81.8822 215.125C93.9752 215.125 105.35 210.708 114.238 202.626C123.124 210.708 134.498 215.125 146.591 215.125C152.892 215.125 159.03 213.872 164.724 211.555C164.819 211.528 164.905 211.49 164.997 211.456C170.959 208.986 176.421 205.333 181.023 200.631C190.076 209.883 202.435 215.125 215.453 215.125C227.826 215.125 239.606 210.382 248.519 201.964C248.526 201.958 248.533 201.953 248.539 201.947C249.84 200.717 251.082 199.413 252.253 198.03C253.36 196.72 253.196 194.762 251.889 193.652C250.574 192.549 248.621 192.713 247.512 194.016C246.805 194.851 246.036 195.615 245.274 196.387C227.954 194.569 211.636 187.852 198.013 176.83C192.354 172.252 187.514 166.93 183.534 160.978C192.246 161.804 201.278 159.935 209.262 154.958C220.801 147.764 228.844 136.504 231.915 123.26C234.985 110.015 232.712 96.3664 225.518 84.8285C216.632 70.5832 202.733 60.6517 186.377 56.8591C173.596 53.8942 160.523 55.0198 148.611 59.8703C135.524 61.7985 123.15 66.3502 111.828 73.4086C68.2772 100.565 47.1594 152.617 58.8075 202.011C56.4952 200.483 54.3145 198.72 52.3032 196.723C51.0936 195.52 49.1232 195.523 47.9136 196.742C46.7071 197.957 46.713 199.922 47.9318 201.131C52.2259 205.394 57.197 208.716 62.5803 211.072ZM184.977 62.9072C199.716 66.3237 212.243 75.276 220.249 88.1147C233.291 109.026 226.888 136.647 205.976 149.689C189.539 159.944 167.818 154.906 157.571 138.469C153.685 132.239 152.457 124.869 154.115 117.718C155.774 110.566 160.118 104.485 166.348 100.602C171.189 97.5822 176.925 96.6242 182.481 97.9157C188.042 99.204 192.768 102.581 195.787 107.426C196.694 108.878 198.603 109.323 200.065 108.417C201.52 107.511 201.962 105.594 201.056 104.139C197.157 97.8885 191.058 93.532 183.882 91.8676C176.706 90.1973 169.31 91.437 163.061 95.3329C155.425 100.095 150.098 107.547 148.067 116.314C146.033 125.085 147.54 134.118 152.302 141.755C157.791 150.553 166.08 156.539 175.295 159.354C180.103 167.901 186.4 175.422 194.108 181.657C207.114 192.178 222.415 199.053 238.729 201.789C231.896 206.362 223.846 208.916 215.453 208.916C203.09 208.916 191.407 203.487 183.394 194.019C182.803 193.322 181.936 192.919 181.023 192.919C180.111 192.919 179.244 193.322 178.653 194.016C174.544 198.874 169.459 202.647 163.821 205.191C145.271 198.148 129.898 185.554 119.349 168.639C109.23 152.414 106.038 133.221 110.355 114.595C114.672 95.9695 125.985 80.1415 142.21 70.0253C155.049 62.0189 170.234 59.4844 184.977 62.9072ZM115.114 78.6772C119.9 75.6928 124.895 73.2142 130.052 71.197C117.171 81.9695 108.163 96.55 104.307 113.195C99.6136 133.436 103.085 154.294 114.081 171.925C124.02 187.863 137.964 200.217 154.706 208.083C152.053 208.606 149.344 208.916 146.591 208.916C135.156 208.916 124.457 204.381 116.466 196.144C115.881 195.541 115.078 195.202 114.238 195.202C113.398 195.202 112.595 195.541 112.01 196.144C104.016 204.381 93.3171 208.916 81.8822 208.916C76.4337 208.916 71.1462 207.867 66.233 205.894C52.3147 157.537 72.2646 105.398 115.114 78.6772Z" fill="#ED653E"/>
<path d="M247.512 223.662C239.499 233.132 227.813 238.562 215.453 238.562C203.09 238.562 191.407 233.132 183.394 223.665C182.803 222.968 181.936 222.564 181.023 222.564C180.111 222.564 179.244 222.968 178.653 223.662C170.64 233.132 158.954 238.562 146.591 238.562C135.156 238.562 124.457 234.027 116.466 225.79C115.881 225.187 115.078 224.847 114.238 224.847C113.398 224.847 112.595 225.187 112.01 225.79C104.016 234.027 93.3171 238.562 81.8822 238.562C70.7291 238.562 60.2248 234.233 52.3032 226.369C51.0936 225.166 49.1232 225.169 47.9136 226.387C46.7071 227.603 46.713 229.567 47.9318 230.777C57.0233 239.802 69.08 244.771 81.8822 244.771C93.9752 244.771 105.35 240.354 114.238 232.272C123.124 240.354 134.498 244.771 146.591 244.771C159.605 244.771 171.968 239.529 181.023 230.277C190.076 239.529 202.435 244.771 215.453 244.771C229.641 244.771 243.055 238.541 252.253 227.676C253.36 226.366 253.196 224.408 251.889 223.298C250.574 222.192 248.621 222.358 247.512 223.662Z" fill="#ED653E"/>
</svg>
