<svg width="206" height="190" viewBox="0 0 206 190" fill="none" xmlns="http://www.w3.org/2000/svg">
<path d="M15.5803 156.072C15.6184 156.086 15.6515 156.111 15.6904 156.124C21.674 158.726 28.1685 160.125 34.8822 160.125C46.9752 160.125 58.3497 155.708 67.2381 147.626C76.1238 155.708 87.4981 160.125 99.5911 160.125C105.892 160.125 112.03 158.872 117.724 156.555C117.819 156.528 117.905 156.49 117.997 156.456C123.959 153.986 129.421 150.333 134.023 145.631C143.076 154.883 155.435 160.125 168.453 160.125C180.826 160.125 192.606 155.382 201.519 146.964C201.526 146.958 201.533 146.953 201.539 146.947C202.84 145.717 204.082 144.413 205.253 143.03C206.36 141.72 206.196 139.762 204.889 138.652C203.574 137.549 201.621 137.713 200.512 139.016C199.805 139.851 199.036 140.615 198.274 141.387C180.954 139.569 164.636 132.852 151.013 121.83C145.354 117.252 140.514 111.93 136.534 105.978C145.246 106.804 154.278 104.935 162.262 99.9576C173.801 92.7637 181.844 81.5045 184.915 68.2597C187.985 55.0145 185.712 41.3664 178.518 29.8285C169.632 15.5832 155.733 5.65167 139.377 1.85913C126.596 -1.10577 113.523 0.0197577 101.611 4.87027C88.5243 6.79847 76.1502 11.3502 64.8279 18.4086C21.2772 45.5653 0.159395 97.6173 11.8075 147.011C9.4952 145.483 7.31451 143.72 5.30322 141.723C4.09356 140.52 2.12317 140.523 0.913557 141.742C-0.292945 142.957 -0.286969 144.922 0.931836 146.131C5.22594 150.394 10.197 153.716 15.5803 156.072ZM137.977 7.90718C152.716 11.3237 165.243 20.276 173.249 33.1147C186.291 54.0264 179.888 81.6469 158.976 94.6888C142.539 104.944 120.818 99.9061 110.571 83.4688C106.685 77.239 105.457 69.8693 107.115 62.7179C108.774 55.5664 113.118 49.485 119.348 45.6016C124.189 42.5822 129.925 41.6242 135.481 42.9157C141.042 44.204 145.768 47.5813 148.787 52.4257C149.694 53.8779 151.603 54.3235 153.065 53.4171C154.52 52.5106 154.962 50.5945 154.056 49.1395C150.157 42.8885 144.058 38.532 136.882 36.8676C129.706 35.1973 122.31 36.437 116.061 40.3329C108.425 45.0953 103.098 52.547 101.067 61.3142C99.0332 70.0846 100.54 79.1185 105.302 86.7552C110.791 95.5534 119.08 101.539 128.295 104.354C133.103 112.901 139.4 120.422 147.108 126.657C160.114 137.178 175.415 144.053 191.729 146.789C184.896 151.362 176.846 153.916 168.453 153.916C156.09 153.916 144.407 148.487 136.394 139.019C135.803 138.322 134.936 137.919 134.023 137.919C133.111 137.919 132.244 138.322 131.653 139.016C127.544 143.874 122.459 147.647 116.821 150.191C98.2707 143.148 82.8976 130.554 72.3493 113.639C62.2299 97.4142 59.0378 78.2214 63.3545 59.5954C67.6715 40.9695 78.9855 25.1415 95.2103 15.0253C108.049 7.0189 123.234 4.48442 137.977 7.90718ZM68.1141 23.6772C72.8997 20.6928 77.8951 18.2142 83.0524 16.197C70.1715 26.9695 61.1632 41.55 57.3069 58.1948C52.6136 78.4365 56.085 99.2937 67.0807 116.925C77.0204 132.863 90.9637 145.217 107.706 153.083C105.053 153.606 102.344 153.916 99.5911 153.916C88.1558 153.916 77.4573 149.381 69.4662 141.144C68.8811 140.541 68.0778 140.202 67.2381 140.202C66.3983 140.202 65.595 140.541 65.0099 141.144C57.0156 149.381 46.3171 153.916 34.8822 153.916C29.4337 153.916 24.1462 152.867 19.233 150.894C5.31465 102.537 25.2646 50.398 68.1141 23.6772Z" fill="#ED653E"/>
<path d="M200.512 168.662C192.499 178.132 180.813 183.562 168.453 183.562C156.09 183.562 144.407 178.132 136.394 168.665C135.803 167.968 134.936 167.564 134.023 167.564C133.111 167.564 132.244 167.968 131.653 168.662C123.64 178.132 111.954 183.562 99.5911 183.562C88.1558 183.562 77.4573 179.027 69.4662 170.79C68.8811 170.187 68.0778 169.847 67.2381 169.847C66.3983 169.847 65.595 170.187 65.0099 170.79C57.0156 179.027 46.3171 183.562 34.8822 183.562C23.7291 183.562 13.2248 179.233 5.30322 171.369C4.09356 170.166 2.12317 170.169 0.913557 171.387C-0.292945 172.603 -0.286969 174.567 0.931836 175.777C10.0233 184.802 22.08 189.771 34.8822 189.771C46.9752 189.771 58.3497 185.354 67.2381 177.272C76.1238 185.354 87.4981 189.771 99.5911 189.771C112.605 189.771 124.968 184.529 134.023 175.277C143.076 184.529 155.435 189.771 168.453 189.771C182.641 189.771 196.055 183.541 205.253 172.676C206.36 171.366 206.196 169.408 204.889 168.298C203.574 167.192 201.621 167.358 200.512 168.662Z" fill="#ED653E"/>
</svg>
