<svg width="176" height="200" viewBox="0 0 176 200" fill="none" xmlns="http://www.w3.org/2000/svg">
<path d="M143.959 72.3221C123.119 48.4661 134.019 24.9071 142.074 16.1096C139.503 42.8448 158.302 62.2107 161.782 67.5235C171.551 82.4335 183.89 116.709 168.295 149.272C147.61 192.459 110.14 199.886 90.1457 200C143.445 197.601 163.595 152.356 165.039 130.763C165.703 120.823 164.799 96.1782 143.959 72.3221Z" fill="white"/>
<path d="M31.8766 72.3221C52.7164 48.4661 41.8166 24.9071 33.7618 16.1096C36.3325 42.8448 17.5339 62.2107 14.0531 67.5235C4.28451 82.4335 -8.05482 116.709 7.54072 149.272C28.2253 192.459 65.6955 199.886 85.6898 200C32.3908 197.601 12.2402 152.356 10.7969 130.763C10.1326 120.823 11.0369 96.1782 31.8766 72.3221Z" fill="white"/>
<path d="M145.56 5.22883C142.956 8.22622 135.311 12.4268 129.964 25.4516C124.744 38.1668 129.117 51.1542 132.145 56.4416C119.073 36.8746 124.137 19.6247 125.68 15.3402C127.222 11.0557 131.678 2.48675 135.277 0.601578C138.156 -0.906563 139.561 0.772957 139.904 1.80124C140.761 0.88721 143.092 -0.632356 145.56 0.601578C148.028 1.83551 146.588 4.20055 145.56 5.22883Z" fill="white"/>
<path d="M30.2758 5.22883C32.8793 8.22622 40.5243 12.4268 45.8713 25.4516C51.0912 38.1668 46.7184 51.1542 43.6906 56.4416C56.7628 36.8746 51.6982 19.6247 50.1558 15.3402C48.6134 11.0557 44.1575 2.48675 40.5585 0.601578C37.6794 -0.906563 36.274 0.772957 35.9313 1.80124C35.0744 0.88721 32.7436 -0.632356 30.2758 0.601578C27.8079 1.83551 29.2475 4.20055 30.2758 5.22883Z" fill="white"/>
<path d="M120.55 17.5347C119.832 21.4395 115.385 28.9435 117.402 42.8778C119.372 56.4809 129.741 65.4412 135.036 68.4548C113.831 58.2518 109.422 40.8228 108.572 36.3492C107.722 31.8756 107.202 22.2313 109.343 18.7782C111.055 16.0157 113.119 16.7474 113.937 17.4586C114.21 16.2359 115.445 13.7423 118.197 13.5501C120.95 13.358 120.913 16.1264 120.55 17.5347Z" fill="white"/>
<path d="M55.2855 17.5347C56.0034 21.4395 60.4509 28.9435 58.4331 42.8778C56.4633 56.4809 46.0947 65.4412 40.7992 68.4548C62.0041 58.2518 66.4132 40.8228 67.2634 36.3492C68.1136 31.8756 68.6333 22.2313 66.4926 18.7782C64.7801 16.0157 62.7161 16.7474 61.8982 17.4586C61.625 16.2359 60.3905 13.7423 57.6381 13.5501C54.8856 13.358 54.9228 16.1264 55.2855 17.5347Z" fill="white"/>
<path d="M155.099 154.07C170.317 119.383 150.243 84.89 138.303 71.9794C180.531 158.903 123.793 192.973 90.1457 199.143C105.456 198.572 139.88 188.757 155.099 154.07Z" fill="white"/>
<path d="M20.7369 154.07C5.51844 119.383 25.5927 84.89 37.5322 71.9794C-4.69579 158.903 52.0423 192.973 85.6898 199.143C70.3799 198.572 35.9555 188.757 20.7369 154.07Z" fill="white"/>
<path d="M106.04 53.0437C105.921 52.8239 105.822 52.6229 105.741 52.4421C105.841 52.6442 105.94 52.8447 106.04 53.0437C107.615 55.9501 112.638 62.1304 122.708 67.8663C136.247 75.5784 139.91 92.3249 141.045 97.515C142.168 102.646 147.192 112.729 149.097 114.005C149.587 114.151 149.738 114.139 149.443 114.139C149.344 114.139 149.228 114.093 149.097 114.005C147.021 113.388 138.861 109.949 132.648 90.8312C128.236 77.2578 115.93 72.7549 106.04 53.0437Z" fill="white"/>
<path d="M69.7955 53.0437C69.9146 52.8239 70.0139 52.6229 70.0942 52.4421C69.9949 52.6442 69.8953 52.8447 69.7955 53.0437C68.2208 55.9501 63.1974 62.1304 53.1277 67.8663C39.5887 75.5784 35.9254 92.3249 34.79 97.515C33.6675 102.646 28.6438 112.729 26.7388 114.005C26.2484 114.151 26.0977 114.139 26.3924 114.139C26.4916 114.139 26.6078 114.093 26.7388 114.005C28.8143 113.388 36.9745 109.949 43.1876 90.8312C47.599 77.2578 59.905 72.7549 69.7955 53.0437Z" fill="white"/>
<path d="M63.9351 110.19H75.8357V113.549H71.541V127.849H68.062V113.549H63.9351V110.19Z" fill="white"/>
<path d="M94.045 110.19V127.849H90.566V120.675H82.6723V127.849H79.1933V110.19H82.6723V117.316H90.566V110.19H94.045Z" fill="white"/>
<path d="M98.594 110.19H110.639V113.549H102.073V117.316H109.655V120.675H102.073V124.49H110.974V127.849H98.594V110.19Z" fill="white"/>
<path d="M36.6293 146.464C36.6293 145.249 36.8613 144.097 37.3251 143.009C37.789 141.922 38.4288 140.962 39.2446 140.13C40.0763 139.282 41.0361 138.619 42.1238 138.139C43.2115 137.659 44.3791 137.419 45.6268 137.419C46.8584 137.419 48.0181 137.659 49.1058 138.139C50.1935 138.619 51.1532 139.282 51.9849 140.13C52.8327 140.962 53.4885 141.922 53.9524 143.009C54.4322 144.097 54.6722 145.249 54.6722 146.464C54.6722 147.712 54.4322 148.88 53.9524 149.967C53.4885 151.055 52.8327 152.015 51.9849 152.847C51.1532 153.662 50.1935 154.302 49.1058 154.766C48.0181 155.23 46.8584 155.462 45.6268 155.462C44.3791 155.462 43.2115 155.23 42.1238 154.766C41.0361 154.302 40.0763 153.662 39.2446 152.847C38.4288 152.015 37.789 151.055 37.3251 149.967C36.8613 148.88 36.6293 147.712 36.6293 146.464ZM40.2283 146.464C40.2283 147.248 40.3643 147.984 40.6362 148.672C40.9241 149.344 41.316 149.943 41.8119 150.471C42.3237 150.983 42.9075 151.383 43.5634 151.671C44.2352 151.959 44.963 152.103 45.7467 152.103C46.4985 152.103 47.1943 151.959 47.8341 151.671C48.4899 151.383 49.0578 150.983 49.5376 150.471C50.0175 149.943 50.3934 149.344 50.6653 148.672C50.9372 147.984 51.0732 147.248 51.0732 146.464C51.0732 145.665 50.9292 144.921 50.6413 144.233C50.3694 143.545 49.9855 142.945 49.4897 142.434C49.0098 141.906 48.442 141.498 47.7861 141.21C47.1303 140.922 46.4185 140.778 45.6508 140.778C44.883 140.778 44.1712 140.922 43.5154 141.21C42.8596 141.498 42.2837 141.906 41.7879 142.434C41.292 142.945 40.9081 143.545 40.6362 144.233C40.3643 144.921 40.2283 145.665 40.2283 146.464Z" fill="white"/>
<path d="M71.3849 153.806C71.193 153.966 70.8331 154.182 70.3052 154.454C69.7934 154.726 69.1615 154.966 68.4098 155.174C67.658 155.382 66.8262 155.478 65.9145 155.462C64.5229 155.43 63.2752 155.182 62.1715 154.718C61.0839 154.238 60.1561 153.59 59.3883 152.775C58.6365 151.959 58.0607 151.023 57.6608 149.967C57.2609 148.912 57.061 147.784 57.061 146.584C57.061 145.241 57.2609 144.009 57.6608 142.889C58.0767 141.77 58.6605 140.802 59.4123 139.986C60.1801 139.17 61.0918 138.539 62.1475 138.091C63.2032 137.643 64.3709 137.419 65.6505 137.419C66.8342 137.419 67.8819 137.579 68.7936 137.899C69.7054 138.219 70.4492 138.563 71.025 138.931L69.6574 142.218C69.2575 141.914 68.7217 141.602 68.0499 141.282C67.394 140.946 66.6343 140.778 65.7705 140.778C65.0987 140.778 64.4509 140.922 63.8271 141.21C63.2192 141.482 62.6754 141.874 62.1955 142.386C61.7317 142.897 61.3638 143.497 61.0918 144.185C60.8199 144.857 60.684 145.593 60.684 146.392C60.684 147.24 60.8039 148.016 61.0439 148.72C61.2998 149.424 61.6597 150.031 62.1236 150.543C62.5874 151.039 63.1393 151.423 63.7791 151.695C64.4349 151.967 65.1707 152.103 65.9865 152.103C66.9302 152.103 67.7379 151.951 68.4098 151.647C69.0816 151.343 69.5934 151.023 69.9453 150.687L71.3849 153.806Z" fill="white"/>
<path d="M74.8703 137.611H86.9148V140.97H78.3493V144.737H85.9311V148.096H78.3493V151.911H87.2508V155.27H74.8703V137.611Z" fill="white"/>
<path d="M88.8587 155.27L96.8244 136.915H97.0163L104.982 155.27H100.951L95.8647 142.362L98.3839 140.634L92.2897 155.27H88.8587ZM94.3051 148.888H99.6076L100.831 151.815H93.2254L94.3051 148.888Z" fill="white"/>
<path d="M123.368 155.99L109.98 143.897L111.011 144.473L111.083 155.27H107.556V136.915H107.7L120.8 148.96L120.033 148.624L119.961 137.611H123.464V155.99H123.368Z" fill="white"/>
<path d="M137.441 141.882C136.769 141.514 136.081 141.21 135.377 140.97C134.689 140.73 134.042 140.61 133.434 140.61C132.682 140.61 132.09 140.762 131.658 141.066C131.226 141.37 131.01 141.826 131.01 142.434C131.01 142.849 131.17 143.225 131.49 143.561C131.826 143.881 132.25 144.169 132.762 144.425C133.29 144.681 133.834 144.913 134.394 145.121C134.905 145.313 135.409 145.545 135.905 145.817C136.417 146.073 136.873 146.4 137.273 146.8C137.673 147.184 137.993 147.672 138.232 148.264C138.472 148.84 138.592 149.552 138.592 150.399C138.592 151.295 138.36 152.127 137.897 152.895C137.433 153.662 136.753 154.286 135.857 154.766C134.961 155.23 133.858 155.462 132.546 155.462C131.874 155.462 131.186 155.398 130.483 155.27C129.795 155.126 129.115 154.918 128.443 154.646C127.771 154.358 127.124 153.998 126.5 153.566L128.035 150.855C128.451 151.159 128.899 151.431 129.379 151.671C129.875 151.895 130.371 152.071 130.867 152.199C131.362 152.327 131.818 152.391 132.234 152.391C132.65 152.391 133.066 152.335 133.482 152.223C133.914 152.095 134.266 151.887 134.537 151.599C134.825 151.311 134.969 150.911 134.969 150.399C134.969 150.047 134.849 149.727 134.609 149.44C134.386 149.152 134.074 148.888 133.674 148.648C133.29 148.408 132.866 148.2 132.402 148.024C131.858 147.816 131.298 147.576 130.723 147.304C130.147 147.032 129.603 146.704 129.091 146.32C128.595 145.921 128.187 145.433 127.867 144.857C127.563 144.265 127.412 143.545 127.412 142.697C127.412 141.674 127.635 140.786 128.083 140.034C128.547 139.282 129.195 138.691 130.027 138.259C130.859 137.811 131.818 137.563 132.906 137.515C134.33 137.515 135.481 137.683 136.361 138.019C137.257 138.355 138.056 138.755 138.76 139.218L137.441 141.882Z" fill="white"/>
<path d="M151.965 4.69345C139.371 14.8273 146.635 40.2991 151.965 50.7284C143.371 31.3977 149.657 10.9213 160.56 7.08479C167.355 4.69345 175.15 6.48703 175.15 13.0635C179.347 3.69702 163.358 -4.47372 151.965 4.69345Z" fill="white"/>
<path d="M23.8702 4.69345C36.4641 14.8273 29.2001 40.2991 23.8702 50.7284C32.4646 31.3977 26.178 10.9213 15.2759 7.08479C8.48034 4.69345 0.685423 6.48703 0.685423 13.0635C-3.51181 3.69702 12.4777 -4.47372 23.8702 4.69345Z" fill="white"/>
<path d="M166.78 12.9975C168.342 10.0233 165.396 7.78639 161.44 7.78639C165.594 6.59671 169.628 6.99328 171.132 11.0147C172.1 13.6006 170.143 17.1614 166.78 16.7648C164.09 16.4476 162.495 14.1211 162.033 12.9975C162.033 12.9975 165.219 15.9717 166.78 12.9975Z" fill="white"/>
<path d="M9.05505 12.9975C7.4934 10.0233 10.4397 7.78639 14.3959 7.78639C10.2419 6.59671 6.2077 6.99328 4.70327 11.0147C3.73587 13.6006 5.69231 17.1614 9.05505 16.7648C11.7452 16.4476 13.3409 14.1211 13.8024 12.9975C13.8024 12.9975 10.6167 15.9717 9.05505 12.9975Z" fill="white"/>
</svg>
