<svg width="85" height="96" viewBox="0 0 85 96" fill="none" xmlns="http://www.w3.org/2000/svg">
<mask id="path-1-inside-1_214_1424" fill="white">
<path fill-rule="evenodd" clip-rule="evenodd" d="M40 20C51.0457 20 60 11.0457 60 0H80V96H0V0H20C20 11.0457 28.9543 20 40 20Z"/>
</mask>
<path fill-rule="evenodd" clip-rule="evenodd" d="M40 20C51.0457 20 60 11.0457 60 0H80V96H0V0H20C20 11.0457 28.9543 20 40 20Z" fill="url(#paint0_linear_214_1424)"/>
<path d="M60 0V-2H58V0H60ZM80 0H82V-2H80V0ZM80 96V98H82V96H80ZM0 96H-2V98H0V96ZM0 0V-2H-2V0H0ZM20 0H22V-2H20V0ZM58 0C58 9.94113 49.9411 18 40 18V22C52.1503 22 62 12.1503 62 0H58ZM60 2H80V-2H60V2ZM78 0V96H82V0H78ZM80 94H0V98H80V94ZM2 96V0H-2V96H2ZM0 2H20V-2H0V2ZM40 18C30.0589 18 22 9.94113 22 0H18C18 12.1503 27.8497 22 40 22V18Z" fill="url(#paint1_linear_214_1424)" mask="url(#path-1-inside-1_214_1424)"/>
<line x1="2" y1="31" x2="79" y2="31" stroke="white" stroke-width="2" stroke-linecap="round" stroke-dasharray="8 8"/>
<defs>
<linearGradient id="paint0_linear_214_1424" x1="40" y1="0" x2="40" y2="63" gradientUnits="userSpaceOnUse">
<stop stop-color="#F37F5D"/>
<stop offset="1" stop-color="#ED653E"/>
</linearGradient>
<linearGradient id="paint1_linear_214_1424" x1="40" y1="0" x2="40" y2="96" gradientUnits="userSpaceOnUse">
<stop stop-color="#FFB681"/>
<stop offset="1" stop-color="#FFA48A" stop-opacity="0"/>
</linearGradient>
</defs>
</svg>
