<svg width="1920" height="3500" viewBox="0 0 1920 3500" fill="none" xmlns="http://www.w3.org/2000/svg">
<path fill-rule="evenodd" clip-rule="evenodd" d="M1920 0H0V3500H1920V0ZM271.808 508V643H315.058V508H355.808V465H231.058V508H271.808ZM467.12 567.25V643H510.62V465H467.12V524.5H411.87V465H368.62V643H411.87V567.25H467.12ZM535.466 465V643H654.966V600H578.966V566H646.966V522.75H578.966V507.5H656.716V465H535.466ZM896.188 553C896.188 501.75 854.188 460.25 803.438 460.25C752.438 460.25 710.938 501.75 710.938 553C710.938 603.75 752.438 645.25 803.438 645.25C854.188 645.25 896.188 603.75 896.188 553ZM852.438 553C852.438 580 830.688 602.25 803.438 602.25C776.188 602.25 754.188 580 754.188 553C754.188 525.75 776.188 503 803.438 503C830.688 503 852.438 525.75 852.438 553ZM1039.09 577.5C1025.09 596 1011.34 602.5 995.837 602.5C968.087 602.5 946.087 580.5 946.087 552.75C946.087 525.25 968.087 503 995.837 503C1011.34 503 1025.59 510.5 1039.59 529.25L1074.34 503.75C1052.09 474 1025.34 460.25 995.837 460.25C944.837 460.25 903.087 501.75 903.087 552.75C903.087 603.75 944.837 645.5 995.837 645.5C1024.84 645.5 1051.09 632.5 1073.34 602.75L1039.09 577.5ZM1081.4 465V643H1200.9V600H1124.9V566H1192.9V522.75H1124.9V507.5H1202.65V465H1081.4ZM1317.51 602.5L1332.76 643H1379.51L1310.76 465H1274.26L1205.76 643H1251.76L1267.51 602.5H1317.51ZM1292.51 534L1300.76 560H1284.01L1292.51 534ZM1432.05 547.75L1496.05 643H1535.55V465H1492.05V559.75L1428.3 465H1388.55V643H1432.05V547.75ZM1600.7 642.5C1606.2 643.75 1612.7 644.5 1618.7 644.5C1629.95 644.5 1640.2 643 1650.2 637.75C1659.7 633 1668.2 627 1673.95 618.75C1680.45 609.75 1683.45 599 1683.45 587.5C1683.45 568 1673.95 552.25 1655.95 542.25H1656.2C1647.5 537.211 1634.6 534.27 1625 532.082C1624.12 531.882 1623.27 531.688 1622.45 531.5C1621.61 531.259 1620.77 531.134 1619.95 531.013C1619.07 530.884 1618.23 530.759 1617.45 530.5C1602.95 527.5 1593.95 524.25 1593.95 517.5C1593.95 514.25 1596.45 510.75 1601.2 508.75C1604.2 507.25 1607.95 506.25 1612.7 506.25C1622.2 506.25 1631.7 508.5 1650.2 523.75L1677.7 490.75C1657.2 473.75 1642.45 467.25 1626.45 464.5C1621.45 463.75 1617.45 463.5 1613.2 463.5C1602.95 463.5 1592.2 465.75 1582.7 470.25L1582.95 470C1573.7 474.25 1565.7 480.5 1559.95 488.5C1554.2 497 1550.7 507 1550.7 517.5C1550.7 536.5 1559.45 551.75 1576.45 561.75C1586.45 567.75 1610.95 573 1615.95 574C1627.2 576.25 1640.2 580.5 1640.2 587.5C1640.2 594.25 1634.95 597.5 1631.95 599C1628.45 600.75 1623.95 601.75 1618.95 601.75C1615.95 601.75 1612.7 601.25 1609.45 600.5C1598.45 598.5 1589.2 593.25 1573.45 579.5L1544.95 612.25C1566.2 630.5 1582.7 638.75 1600.7 642.5Z" fill="url(#paint0_linear_583_273)"/>
<defs>
<linearGradient id="paint0_linear_583_273" x1="960" y1="108.5" x2="960" y2="3500" gradientUnits="userSpaceOnUse">
<stop stop-color="#0F396A"/>
<stop offset="0.984375" stop-color="#225BBF"/>
</linearGradient>
</defs>
</svg>
