<svg width="370" height="47" viewBox="0 0 370 47" fill="none" xmlns="http://www.w3.org/2000/svg">
<path d="M61.1232 33L70.6932 10.35H70.8732L80.4432 33H76.7832L69.8232 15.36L72.1332 13.83L64.2732 33H61.1232ZM66.9432 24.84H74.6832L75.7932 27.6H65.9832L66.9432 24.84ZM84.3491 33V10.5H84.3791L95.9591 26.91L94.5791 26.61L106.099 10.5H106.159V33H102.979V17.73L103.189 19.38L95.1491 30.75H95.0891L86.8991 19.38L87.4391 17.88V33H84.3491ZM120.32 13.23H125.66V33H122.45V16.32H120.32V13.23ZM138.081 33.09C136.881 33.09 135.771 32.87 134.751 32.43C133.751 31.97 132.881 31.31 132.141 30.45C131.401 29.59 130.821 28.54 130.401 27.3C129.981 26.04 129.771 24.62 129.771 23.04C129.771 21.32 129.971 19.83 130.371 18.57C130.771 17.31 131.331 16.27 132.051 15.45C132.791 14.61 133.671 14 134.691 13.62C135.711 13.22 136.841 13.02 138.081 13.02C139.301 13.02 140.411 13.24 141.411 13.68C142.431 14.12 143.311 14.77 144.051 15.63C144.791 16.49 145.361 17.55 145.761 18.81C146.181 20.05 146.391 21.46 146.391 23.04C146.391 24.66 146.181 26.1 145.761 27.36C145.361 28.6 144.781 29.65 144.021 30.51C143.281 31.35 142.411 31.99 141.411 32.43C140.411 32.87 139.301 33.09 138.081 33.09ZM138.051 30C139.191 30 140.131 29.71 140.871 29.13C141.611 28.53 142.161 27.7 142.521 26.64C142.881 25.56 143.061 24.33 143.061 22.95C143.061 21.61 142.881 20.43 142.521 19.41C142.161 18.37 141.611 17.56 140.871 16.98C140.131 16.38 139.191 16.09 138.051 16.11C136.951 16.09 136.031 16.38 135.291 16.98C134.551 17.56 134.001 18.37 133.641 19.41C133.281 20.45 133.101 21.66 133.101 23.04C133.101 24.38 133.281 25.58 133.641 26.64C134.001 27.7 134.551 28.53 135.291 29.13C136.031 29.71 136.951 30 138.051 30ZM157.892 23.07C157.892 22.57 158.062 22.16 158.402 21.84C158.762 21.5 159.152 21.33 159.572 21.33C159.972 21.33 160.352 21.5 160.712 21.84C161.072 22.16 161.252 22.56 161.252 23.04C161.252 23.56 161.072 23.98 160.712 24.3C160.352 24.6 159.972 24.75 159.572 24.75C159.152 24.75 158.762 24.6 158.402 24.3C158.062 24 157.892 23.59 157.892 23.07ZM157.892 31.29C157.892 30.81 158.062 30.41 158.402 30.09C158.762 29.75 159.152 29.58 159.572 29.58C159.972 29.58 160.352 29.75 160.712 30.09C161.072 30.41 161.252 30.81 161.252 31.29C161.252 31.81 161.072 32.23 160.712 32.55C160.352 32.85 159.972 33 159.572 33C159.152 33 158.762 32.85 158.402 32.55C158.062 32.23 157.892 31.81 157.892 31.29ZM181.235 33.09C180.035 33.09 178.925 32.87 177.905 32.43C176.905 31.97 176.035 31.31 175.295 30.45C174.555 29.59 173.975 28.54 173.555 27.3C173.135 26.04 172.925 24.62 172.925 23.04C172.925 21.32 173.125 19.83 173.525 18.57C173.925 17.31 174.485 16.27 175.205 15.45C175.945 14.61 176.825 14 177.845 13.62C178.865 13.22 179.995 13.02 181.235 13.02C182.455 13.02 183.565 13.24 184.565 13.68C185.585 14.12 186.465 14.77 187.205 15.63C187.945 16.49 188.515 17.55 188.915 18.81C189.335 20.05 189.545 21.46 189.545 23.04C189.545 24.66 189.335 26.1 188.915 27.36C188.515 28.6 187.935 29.65 187.175 30.51C186.435 31.35 185.565 31.99 184.565 32.43C183.565 32.87 182.455 33.09 181.235 33.09ZM181.205 30C182.345 30 183.285 29.71 184.025 29.13C184.765 28.53 185.315 27.7 185.675 26.64C186.035 25.56 186.215 24.33 186.215 22.95C186.215 21.61 186.035 20.43 185.675 19.41C185.315 18.37 184.765 17.56 184.025 16.98C183.285 16.38 182.345 16.09 181.205 16.11C180.105 16.09 179.185 16.38 178.445 16.98C177.705 17.56 177.155 18.37 176.795 19.41C176.435 20.45 176.255 21.66 176.255 23.04C176.255 24.38 176.435 25.58 176.795 26.64C177.155 27.7 177.705 28.53 178.445 29.13C179.185 29.71 180.105 30 181.205 30ZM199.956 33.09C198.756 33.09 197.646 32.87 196.626 32.43C195.626 31.97 194.756 31.31 194.016 30.45C193.276 29.59 192.696 28.54 192.276 27.3C191.856 26.04 191.646 24.62 191.646 23.04C191.646 21.32 191.846 19.83 192.246 18.57C192.646 17.31 193.206 16.27 193.926 15.45C194.666 14.61 195.546 14 196.566 13.62C197.586 13.22 198.716 13.02 199.956 13.02C201.176 13.02 202.286 13.24 203.286 13.68C204.306 14.12 205.186 14.77 205.926 15.63C206.666 16.49 207.236 17.55 207.636 18.81C208.056 20.05 208.266 21.46 208.266 23.04C208.266 24.66 208.056 26.1 207.636 27.36C207.236 28.6 206.656 29.65 205.896 30.51C205.156 31.35 204.286 31.99 203.286 32.43C202.286 32.87 201.176 33.09 199.956 33.09ZM199.926 30C201.066 30 202.006 29.71 202.746 29.13C203.486 28.53 204.036 27.7 204.396 26.64C204.756 25.56 204.936 24.33 204.936 22.95C204.936 21.61 204.756 20.43 204.396 19.41C204.036 18.37 203.486 17.56 202.746 16.98C202.006 16.38 201.066 16.09 199.926 16.11C198.826 16.09 197.906 16.38 197.166 16.98C196.426 17.56 195.876 18.37 195.516 19.41C195.156 20.45 194.976 21.66 194.976 23.04C194.976 24.38 195.156 25.58 195.516 26.64C195.876 27.7 196.426 28.53 197.166 29.13C197.906 29.71 198.826 30 199.926 30ZM220.487 25.11H226.067V27.81H220.487V25.11ZM246.589 11.22C248.209 11.22 249.589 11.5 250.729 12.06C251.889 12.6 252.769 13.38 253.369 14.4C253.989 15.42 254.299 16.66 254.299 18.12C254.299 18.98 254.169 19.83 253.909 20.67C253.649 21.51 253.229 22.28 252.649 22.98C252.089 23.66 251.339 24.21 250.399 24.63C249.459 25.03 248.319 25.23 246.979 25.23H243.799V33H240.589V11.22H246.589ZM246.979 22.14C247.779 22.14 248.449 22.01 248.989 21.75C249.529 21.47 249.949 21.12 250.249 20.7C250.569 20.28 250.789 19.85 250.909 19.41C251.049 18.95 251.119 18.54 251.119 18.18C251.119 17.78 251.049 17.36 250.909 16.92C250.789 16.46 250.579 16.04 250.279 15.66C249.979 15.26 249.569 14.94 249.049 14.7C248.529 14.44 247.879 14.31 247.099 14.31H243.799V22.14H246.979ZM258.665 33V10.5H258.695L270.275 26.91L268.895 26.61L280.415 10.5H280.475V33H277.295V17.73L277.505 19.38L269.465 30.75H269.405L261.215 19.38L261.755 17.88V33H258.665ZM307.086 13.23L299.286 33H295.686L302.616 15.87L303.696 16.29H294.066V13.23H307.086ZM318.293 23.07C318.293 22.57 318.463 22.16 318.803 21.84C319.163 21.5 319.553 21.33 319.973 21.33C320.373 21.33 320.753 21.5 321.113 21.84C321.473 22.16 321.653 22.56 321.653 23.04C321.653 23.56 321.473 23.98 321.113 24.3C320.753 24.6 320.373 24.75 319.973 24.75C319.553 24.75 319.163 24.6 318.803 24.3C318.463 24 318.293 23.59 318.293 23.07ZM318.293 31.29C318.293 30.81 318.463 30.41 318.803 30.09C319.163 29.75 319.553 29.58 319.973 29.58C320.373 29.58 320.753 29.75 321.113 30.09C321.473 30.41 321.653 30.81 321.653 31.29C321.653 31.81 321.473 32.23 321.113 32.55C320.753 32.85 320.373 33 319.973 33C319.553 33 319.163 32.85 318.803 32.55C318.463 32.23 318.293 31.81 318.293 31.29ZM341.635 33.09C340.435 33.09 339.325 32.87 338.305 32.43C337.305 31.97 336.435 31.31 335.695 30.45C334.955 29.59 334.375 28.54 333.955 27.3C333.535 26.04 333.325 24.62 333.325 23.04C333.325 21.32 333.525 19.83 333.925 18.57C334.325 17.31 334.885 16.27 335.605 15.45C336.345 14.61 337.225 14 338.245 13.62C339.265 13.22 340.395 13.02 341.635 13.02C342.855 13.02 343.965 13.24 344.965 13.68C345.985 14.12 346.865 14.77 347.605 15.63C348.345 16.49 348.915 17.55 349.315 18.81C349.735 20.05 349.945 21.46 349.945 23.04C349.945 24.66 349.735 26.1 349.315 27.36C348.915 28.6 348.335 29.65 347.575 30.51C346.835 31.35 345.965 31.99 344.965 32.43C343.965 32.87 342.855 33.09 341.635 33.09ZM341.605 30C342.745 30 343.685 29.71 344.425 29.13C345.165 28.53 345.715 27.7 346.075 26.64C346.435 25.56 346.615 24.33 346.615 22.95C346.615 21.61 346.435 20.43 346.075 19.41C345.715 18.37 345.165 17.56 344.425 16.98C343.685 16.38 342.745 16.09 341.605 16.11C340.505 16.09 339.585 16.38 338.845 16.98C338.105 17.56 337.555 18.37 337.195 19.41C336.835 20.45 336.655 21.66 336.655 23.04C336.655 24.38 336.835 25.58 337.195 26.64C337.555 27.7 338.105 28.53 338.845 29.13C339.585 29.71 340.505 30 341.605 30ZM360.356 33.09C359.156 33.09 358.046 32.87 357.026 32.43C356.026 31.97 355.156 31.31 354.416 30.45C353.676 29.59 353.096 28.54 352.676 27.3C352.256 26.04 352.046 24.62 352.046 23.04C352.046 21.32 352.246 19.83 352.646 18.57C353.046 17.31 353.606 16.27 354.326 15.45C355.066 14.61 355.946 14 356.966 13.62C357.986 13.22 359.116 13.02 360.356 13.02C361.576 13.02 362.686 13.24 363.686 13.68C364.706 14.12 365.586 14.77 366.326 15.63C367.066 16.49 367.636 17.55 368.036 18.81C368.456 20.05 368.666 21.46 368.666 23.04C368.666 24.66 368.456 26.1 368.036 27.36C367.636 28.6 367.056 29.65 366.296 30.51C365.556 31.35 364.686 31.99 363.686 32.43C362.686 32.87 361.576 33.09 360.356 33.09ZM360.326 30C361.466 30 362.406 29.71 363.146 29.13C363.886 28.53 364.436 27.7 364.796 26.64C365.156 25.56 365.336 24.33 365.336 22.95C365.336 21.61 365.156 20.43 364.796 19.41C364.436 18.37 363.886 17.56 363.146 16.98C362.406 16.38 361.466 16.09 360.326 16.11C359.226 16.09 358.306 16.38 357.566 16.98C356.826 17.56 356.276 18.37 355.916 19.41C355.556 20.45 355.376 21.66 355.376 23.04C355.376 24.38 355.556 25.58 355.916 26.64C356.276 27.7 356.826 28.53 357.566 29.13C358.306 29.71 359.226 30 360.326 30Z" fill="#0F396A"/>
<path d="M23.5 10V23.5L32.5 28" stroke="#0F396A" stroke-width="2" stroke-linecap="round" stroke-linejoin="round"/>
<path d="M23.5 46C35.9264 46 46 35.9264 46 23.5C46 11.0736 35.9264 1 23.5 1C11.0736 1 1 11.0736 1 23.5C1 35.9264 11.0736 46 23.5 46Z" stroke="#0F396A" stroke-width="2" stroke-linecap="round" stroke-linejoin="round"/>
</svg>
